<svg xmlns="http://www.w3.org/2000/svg" viewBox="0 0 450 200">
	<g id="Animation1">
	  <rect id="backgroundDelete" width="450" height="200" style="fill: none"/>
	  <g id="theGuy">
		<g>
		  <g>
			<path d="M167.51,108.75l-.15-16.31,23-13.46h8.42l-7,18a5.69,5.69,0,0,1-2.21,2.68l-18.81,10.23Z" style="fill: #cdb498"/>
			<polygon points="165.13 90.87 159.49 101.44 170.72 109.86 176.28 106.38 165.13 90.87" style="fill: #cdb498"/>
			<path d="M196.24,64.22l-12.41-1.77a2.82,2.82,0,0,0-3,1.78l-12,31.36,15.9,2.26a2.82,2.82,0,0,0,3-1.78L198.47,68A2.8,2.8,0,0,0,196.24,64.22Z" style="fill: #bde6ee"/>
			<g>
			  <g>
				<path d="M180.81,64.23,174.68,80.3l20.88-16.18-11.73-1.67A2.82,2.82,0,0,0,180.81,64.23Z" style="fill: #d3eef4"/>
				<path d="M196.24,64.22l-12.41-1.77-.4,0a2.81,2.81,0,0,0-2.62,1.81l-12,31.35a0,0,0,0,0,0,0l15.89,2.26.39,0a2.81,2.81,0,0,0,2.63-1.8L198.47,68A2.8,2.8,0,0,0,196.24,64.22ZM185.92,93,173.5,91.27l9.93-26h0L195.85,67Z" style="fill: #4e5052"/>
			  </g>
			  <path d="M179.63,80.37l-1.09-2L165.13,90.87l-5.64,10.57,11.23,8.42,5.56-3.48-7.51-10.45,9.68-8.74A5.62,5.62,0,0,0,179.63,80.37Z" style="fill: #cdb498"/>
			</g>
		  </g>
		  <g>
			<path d="M112.85,77.19l3.28-11.74L96.21,44.07s.27,1.17-1.44,9.93a45.09,45.09,0,0,1-6.71,12.88L97.4,83.72Z" style="fill: #cdb498"/>
			<polygon points="112.85 77.19 107.77 81.28 99.34 44.42 116.13 65.44 112.85 77.19" style="fill: #b29d86"/>
		  </g>
		  <g>
			<path d="M131.65,43.48c.44-1.65,2-3,3.11-7.71a8.26,8.26,0,0,0-.22-5.45l-28.1-13.07L95.85,38.83a16.41,16.41,0,0,0,1,16.44c2,9.29,10.85,11.82,16.81,14.27,3.27,1.34,6.79,1.06,8.91-2.51,2-3.38,5.75-10.1,5.75-10.1a4,4,0,0,0,3.45-.59,1.87,1.87,0,0,0,.63-1.56S131.21,45.13,131.65,43.48Z" style="fill: #cdb498"/>
			<path d="M137.63,19l-4.15-5.24-3.41,3C113,5.73,95.11,9.84,90,29c-2.21,8.25,1.83,23.56,1.83,23.56l2.74,2.14A31.65,31.65,0,0,0,97,40.76c0-2.65,1.6-5.12,4-5.26,3.6-.23,4.13,2.9,7,2.87s3.73-6.06,6-8.87,6.15-2.45,10.39.21c11.31,7.1,14.89.12,15.53-2.3C140.54,24.75,140,22.18,137.63,19Z"/>
		  </g>
		  <path d="M159.49,101.44,137,120.27l-10-5c-.76-9.54-3.31-16.78-7.77-26l-6.41-12c-13.61,0-24.79-10.31-24.79-10.31-4.83,5.85-8.93,8.8-13.72,12.16-5.64,4-10.08,9.38-12,16L50.67,136a16.8,16.8,0,0,0,1.44,12.76l23,41.64h47.86l2.67-39.76,7.47,2.89a5.6,5.6,0,0,0,6.52-1.88l31.14-41.78Z" style="fill: #00758f"/>
		  <polygon points="104.54 190.39 88.99 120.21 75.28 145.48 93.2 190.39 104.54 190.39" style="fill: #00586e"/>
		  <path d="M112.85,77.19C99.52,77,88.06,66.88,88.06,66.88S105.22,84,119.16,89Z" style="fill: #fff"/>
		  <path d="M127.13,127.56c0,.94-.11,1.91-.18,2.9l-1.36,20.17,7.57,2.93Z" style="fill: #00586e"/>
		</g>
	  </g>
	  <g id="whatsapp" data-name="what&apos;sapp">
		<rect id="Blue" x="220.47" y="137.56" width="36.13" height="36.13" rx="2.26" style="fill: #942645"/>
		<path d="M234.33,160a4.33,4.33,0,0,0-2.46-.73c-2.14,0-3.87,1.42-3.87,3.17s1.73,3.17,3.87,3.17,3.87-1.42,3.87-3.17v-.08h0V150.57l9.85-1.1v9.07a4.41,4.41,0,0,0-2.46-.73c-2.14,0-3.87,1.42-3.87,3.17s1.73,3.17,3.87,3.17S247,162.73,247,161v0h0v-16.5l-12.67,1.41Z" style="fill: #fff"/>
	  </g>
	  <g id="prime">
		<g>
		  <rect id="Blue-2" data-name="Blue" x="267.62" y="100.14" width="58.04" height="58.04" rx="3.63" style="fill: #942645"/>
		  <g>
			<g>
			  <polygon points="294.74 114.18 287.67 116.19 286.41 121.86 293.49 119.85 294.74 114.18" style="fill: #fff"/>
			  <polygon points="304.63 111.38 297.48 113.41 296.22 119.08 303.38 117.05 304.63 111.38" style="fill: #ebcad3"/>
			  <path d="M311.65,110.75a1.31,1.31,0,0,0-1.61-.9l-2.67.76-1.25,5.67,6.57-1.86Z" style="fill: #fff"/>
			  <path d="M288.81,126.88h-8.24v16.35a1.76,1.76,0,0,0,1.76,1.76h29.55a1.76,1.76,0,0,0,1.76-1.76V126.83h-3.71Z" style="fill: #fff"/>
			  <polygon points="300.25 125.5 307.6 125.48 304.82 122.99 297.47 123 300.25 125.5" style="fill: #ebcad3"/>
			  <polygon points="287.01 123.02 289.96 125.52 297.4 125.5 294.63 123.01 287.01 123.02" style="fill: #fff"/>
			  <path d="M307.67,123l2.77,2.49H314l0-1.86c0-.35-.58-.64-1.31-.64Z" style="fill: #fff"/>
			  <path d="M283.68,122.63l1.25-5.67-4.82,1.36a1.32,1.32,0,0,0-.9,1.62l1,3.66h0a.31.31,0,0,0,0,.08l0,1.86h6.83Z" style="fill: #ebcad3"/>
			</g>
			<rect x="280.57" y="130.47" width="33.06" height="10.41" style="fill: #ebcad3"/>
		  </g>
		</g>
	  </g>
	  <rect id="box2" x="305.96" y="70.52" width="19.74" height="19.74" rx="1.17" style="fill: #bde6ee"/>
	  <rect id="box1" x="229.81" y="100.14" width="26.79" height="26.79" rx="1.17" style="fill: #324b5c"/>
	  <rect id="box3" x="338.4" y="101.91" width="16.56" height="16.56" rx="1.17" style="fill: #324b5c"/>
	  <rect id="box4" x="337.87" y="129.75" width="14.63" height="14.63" rx="1.17" style="fill: #bde6ee"/>
	  <g id="netflix">
		<rect id="Blue-3" data-name="Blue" x="215.94" y="11.23" width="77.53" height="77.53" rx="4.85" style="fill: #942645"/>
		<g>
		  <path d="M243.2,34.6a2,2,0,1,0,2,2A2,2,0,0,0,243.2,34.6Zm14,6.8V30.2A3.2,3.2,0,0,0,254,27H232.4a3.2,3.2,0,0,0-3.2,3.2V43a3.2,3.2,0,0,0,3.2,3.2h2.4a1.6,1.6,0,0,1,1.6,1.6v5.6l6.4-6.4V44.74l-4.8,4.8V47.8a3.21,3.21,0,0,0-3.2-3.2h-2.4a1.6,1.6,0,0,1-1.6-1.6V30.2a1.6,1.6,0,0,1,1.6-1.6H254a1.6,1.6,0,0,1,1.6,1.6V41.4m-20.8-4.8a2,2,0,1,0,2-2A2,2,0,0,0,234.8,36.6Zm16.8,0a2,2,0,1,0-2,2A2,2,0,0,0,251.6,36.6Z" style="fill: #ebcad3"/>
		  <path d="M243.2,34.6a2,2,0,1,0,2,2A2,2,0,0,0,243.2,34.6Zm34,6.8H248.4a3.2,3.2,0,0,0-3.2,3.2V62.2a3.2,3.2,0,0,0,3.2,3.2h12.82l9.6,9.6V67a1.6,1.6,0,0,1,1.6-1.6h4.78a3.2,3.2,0,0,0,3.2-3.2V44.6A3.2,3.2,0,0,0,277.2,41.4ZM254.8,55.8a2.4,2.4,0,1,1,2.4-2.4A2.39,2.39,0,0,1,254.8,55.8Zm8,0a2.4,2.4,0,1,1,2.4-2.4A2.39,2.39,0,0,1,262.8,55.8Zm8,0a2.4,2.4,0,1,1,2.4-2.4A2.39,2.39,0,0,1,270.8,55.8Zm-36-19.2a2,2,0,1,0,2-2A2,2,0,0,0,234.8,36.6Zm16.8,0a2,2,0,1,0-2,2A2,2,0,0,0,251.6,36.6Z" style="fill: #fff"/>
		</g>
	  </g>
	  <g id="play">
		<rect id="Blue-4" data-name="Blue" x="338.54" y="26.96" width="63.46" height="63.46" rx="3.97" style="fill: #942645"/>
		<g>
		  <path d="M370.27,38.74a19.95,19.95,0,1,0,20,19.95A19.94,19.94,0,0,0,370.27,38.74Z" style="fill: none;stroke: #ebcad3;stroke-miterlimit: 10;stroke-width: 2px"/>
		  <polygon points="380.25 58.69 364.29 68.66 364.29 48.72 380.25 58.69" style="fill: #fff"/>
		</g>
	  </g>
	</g>
</svg>