<svg xmlns="http://www.w3.org/2000/svg" viewBox="0 0 290 160">
		<defs>
						<clipPath id="clipPath">
							 <path id="an3mask" d="M122.6,80.15a45.56,45.56,0,1,1-1-9.67A45.6,45.6,0,0,1,122.6,80.15Z" style="fill: none"/>
						</clipPath>
					</defs>
    <g id="Animation3">
      <rect id="background" width="290" height="160" style="fill: none"/>
      <text class="counter" data-count="40" transform="translate(153.45 98.94)" style="font-size: 62px;fill: #324b5c;font-family: Arial-BoldMT, Arial;font-weight: 700">0</text>
      <path d="M122.6,80.15a45.56,45.56,0,1,1-1-9.67A45.6,45.6,0,0,1,122.6,80.15Z" style="fill: #bde6ee"/>
			<g style="clip-path: url(#clipPath);">
       <g id="an3world">
        <path d="M93.48,91.27l-3.62-2.19a1.32,1.32,0,0,0-.41-.17l-6.66-1.57a1.37,1.37,0,0,1-.46-.21l-3.76-2.5a1,1,0,0,0-.66-.15l-9.32,1.33a.89.89,0,0,1-.56-.09l-2.06-1a1,1,0,0,1-.53-.85V82.53a.94.94,0,0,0-1-1h-1.7a.44.44,0,0,1-.33-.14L62,81a2.88,2.88,0,0,1-.83-2V74.84a1,1,0,0,1,.28-.67l.86-.87A1,1,0,0,1,63,73h3.19a1,1,0,0,1,.9.65l1,3a1,1,0,0,0,.9.65h1a1,1,0,0,0,.92-1.18l-1-4.18a1,1,0,0,1,.07-.65L71,69a.88.88,0,0,1,.32-.37l3.8-2.53a1,1,0,0,0,.37-.49L76.72,62a1,1,0,0,1,.47-.55L82,59a1,1,0,0,0,.52-.85V52.34a.94.94,0,0,0-.65-.9l-3.07-1a1,1,0,0,0-1,.23l-2,2a1,1,0,0,1-1.05.2l-2-.89a1,1,0,0,0-1.11.26l-1.74,2.05a1,1,0,0,0-.22.61v1.79a.71.71,0,0,1-.72.71h-.27A.7.7,0,0,1,68.1,57l-1-1.93a.94.94,0,0,0-.85-.53H65a.94.94,0,0,1-1-1v-1.5a1,1,0,0,1,.28-.68l3.61-3.61a.94.94,0,0,1,.9-.25l4.84,1.21a1,1,0,0,0,.66-.08L75.66,48a1,1,0,0,0,.25-1.53l-3.14-3.13a.85.85,0,0,0-.48-.26l-6.64-1.33a1,1,0,0,1-.38-.17l-5.12-3.84A45.74,45.74,0,0,0,37.34,57.35h4.93a1.43,1.43,0,0,1,1.39,1.75l-1.49,6.31a1.42,1.42,0,0,0,.11,1l2.86,5.87a1.42,1.42,0,0,0,.5.56L46,73a1.4,1.4,0,0,1,.49.56L48.2,77a.92.92,0,0,0,.43.42l.65.33a.72.72,0,0,0,1-1l-1.52-3a.51.51,0,0,1,.46-.75,1,1,0,0,1,.85.52l2.44,4.87a1.43,1.43,0,0,1,.15.64v.56a.94.94,0,0,0,.46.81l6.64,4,6.51,3.92a2.85,2.85,0,0,0,1.37.35l2.14,0a.94.94,0,0,1,.88,1.3l-2.15,5.37a.93.93,0,0,0,.07.84l3.62,6a2.84,2.84,0,0,1,.41,1.47v14.42a3.14,3.14,0,0,0,.14.91l1.07,3.18a1,1,0,0,0,.9.65h1.21a.94.94,0,0,0,1-1v-2.87a.93.93,0,0,1,.36-.74L82.14,116a1,1,0,0,0,.51-.63l1.22-4.88a1,1,0,0,1,.43-.59l6.52-3.9a1,1,0,0,0,.39-.47l2.66-6.65a.92.92,0,0,0,.07-.36v-6.4A1,1,0,0,0,93.48,91.27Z" style="fill: #3a913f"/>
        <path d="M65.86,37.58a1,1,0,0,0,.9,1.25H71a.79.79,0,0,1,.3.05l2.63.87a1,1,0,0,0,1.24-1l-.68-4.09a44.94,44.94,0,0,0-8,1.13Z" style="fill: #3a913f"/>
        <path d="M70.16,78.87a3.09,3.09,0,0,0-.91-.14H67.34a.47.47,0,0,0-.47.47v.48a.47.47,0,0,0,.47.47H68a1.36,1.36,0,0,1,.63.15l2.25,1.13a1.43,1.43,0,0,0,.64.15h2A.48.48,0,0,0,74,81.1v-.61a.48.48,0,0,0-.32-.45Z" style="fill: #3a913f"/>
        <path d="M81.12,34.75v5.5l1.42,2.85v4.16a1,1,0,0,0,.95,1h3.8a1,1,0,0,1,.95.95V55a1,1,0,0,0,1,1h.72a2.85,2.85,0,0,0,2-.84s4.44-1.41,9.88-11.78C112.58,15.6,78.88,20.71,81.12,34.75Z" style="fill: #3a913f"/>
        <path d="M142.7,75.47c-.84-1.22-7.8-2.26-11.8-2.26l-6.63,2.61-5.91-1-4.52.64-5,2-3,5v3l3,3,3,3,4,1,2,3v4l.7,7c2.12,5,11.12,17.48,11.12,10.91C129.66,114.05,158.84,98.94,142.7,75.47Z" style="fill: #3a913f"/>
        <path d="M138.46,56.48l-4.62-1.73H119.32l-1.15,1.73-2.88,2.1s-1.25,3.06-2.68,3.06,2,.88,2,.88l2,1.26L114,67.58l-1.34,1.92,1,1.53,1.05,1.15,1.25,1h2.3l1.34-1.3,1.15-.88,2.68-.58,2.49-.57,1.53-.19,2.1-.19,1.8-.54,2.36-.38,3,.38,3.07.39" style="fill: #3a913f"/>
      </g>
				</g>
      <circle cx="77" cy="80" r="57" style="fill: none;stroke: #f4f4f4;stroke-miterlimit: 10;stroke-width: 12px"/>
      <path id="an3graphline" d="M77,23A57,57,0,1,1,20,80,57,57,0,0,1,77,23" style="fill: none;stroke: #942645;stroke-linecap: round;stroke-miterlimit: 10;stroke-width: 12px"/>
      <rect width="290" height="160" style="fill: none"/>
      
    </g>
</svg>