<svg xmlns="http://www.w3.org/2000/svg" viewBox="0 0 290 160">
 <defs>
						<clipPath id="an2clipPath">
							<rect id="backgrounddeletethis" width="290" height="160" style="fill: none"/>
						</clipPath>
					</defs>
			<g style="clip-path: url(#an2clipPath);">
      <g id="an2watch">
        <path d="M182.62,62.78H178.4V50.11A8.47,8.47,0,0,0,170,41.67H104.51a8.47,8.47,0,0,0-8.45,8.44v65.45a8.47,8.47,0,0,0,8.45,8.44H170a8.47,8.47,0,0,0,8.45-8.44V90.22h4.22a2.11,2.11,0,0,0,2.11-2.11V64.89A2.11,2.11,0,0,0,182.62,62.78Z" style="fill: #4e5052"/>
        <rect x="104.51" y="50.11" width="65.44" height="65.44" style="fill: #bde6ee"/>
        <path class="an2smallbar" d="M171,24.35a3.17,3.17,0,1,0,0,6.34,18.39,18.39,0,0,1,18.37,18.37,3.17,3.17,0,0,0,6.33,0A24.73,24.73,0,0,0,171,24.35Z" style="fill: #f29111"/>
        <path class="an2largebar" d="M171,10a3.17,3.17,0,1,0,0,6.33,32.76,32.76,0,0,1,32.72,32.73,3.17,3.17,0,0,0,6.33,0A39.1,39.1,0,0,0,171,10Z" style="fill: #f29111"/>
        <polygon points="104.51 96.56 150.95 50.11 104.51 50.11 104.51 96.56" style="fill: #d3eef4"/>
        <rect x="110.84" y="56.44" width="14.78" height="14.78" rx="2.11" style="fill: #6d8c9e"/>
        <rect x="129.84" y="56.44" width="14.78" height="14.78" rx="2.11" style="fill: #6d8c9e"/>
        <rect x="148.84" y="56.44" width="14.78" height="14.78" rx="2.11" style="fill: #6d8c9e"/>
        <rect x="110.84" y="75.44" width="14.78" height="14.78" rx="2.11" style="fill: #6d8c9e"/>
        <rect x="129.84" y="75.44" width="14.78" height="14.78" rx="2.11" style="fill: #6d8c9e"/>
        <rect x="148.84" y="75.44" width="14.78" height="14.78" rx="2.11" style="fill: #6d8c9e"/>
        <rect x="110.84" y="94.44" width="14.78" height="14.78" rx="2.11" style="fill: #6d8c9e"/>
        <rect x="129.84" y="94.44" width="14.78" height="14.78" rx="2.11" style="fill: #6d8c9e"/>
        <rect x="148.84" y="94.44" width="14.78" height="14.78" rx="2.11" style="fill: #6d8c9e"/>
        <path d="M113,75.44a2.12,2.12,0,0,0-2.11,2.12V88.11a2.11,2.11,0,0,0,.62,1.49L125,76.06a2.11,2.11,0,0,0-1.49-.62Z" style="fill: #8aadbf"/>
        <path d="M132,56.44a2.12,2.12,0,0,0-2.11,2.12V69.11a2.11,2.11,0,0,0,.62,1.49L144,57.06a2.11,2.11,0,0,0-1.49-.62Z" style="fill: #8aadbf"/>
        <rect x="110.84" y="56.44" width="14.78" height="14.78" rx="2.11" style="fill: #8aadbf"/>
        <path d="M122.37,20.56h29.72a6.33,6.33,0,0,1,6.21,5.09l3.21,16H113l3.21-16A6.33,6.33,0,0,1,122.37,20.56Z" style="fill: #7d7f81"/>
        <path d="M152.09,145.11H122.37a6.33,6.33,0,0,1-6.21-5.09L113,124h48.56l-3.21,16A6.33,6.33,0,0,1,152.09,145.11Z" style="fill: #7d7f81"/>
      </g>
      <g id="an2mobile">
        <rect x="109.31" y="39.14" width="55.47" height="101.43" rx="4.23" style="fill: #4e5052"/>
        <rect x="114.07" y="47.06" width="45.96" height="80.83" style="fill: #bde6ee"/>
        <path d="M145.76,134.23a2.38,2.38,0,0,1-2.37,2.38H130.71a2.39,2.39,0,0,1-2.38-2.38h0a2.38,2.38,0,0,1,2.38-2.37h12.68a2.38,2.38,0,0,1,2.37,2.37Z" style="fill: #939699"/>
        <polygon points="160.03 47.06 114.06 47.06 114.06 107.29 160.03 61.33 160.03 47.06" style="fill: #d3eef4"/>
        <path d="M145.76,43.1a.79.79,0,0,1-.79.79H129.12a.79.79,0,0,1-.79-.79h0a.8.8,0,0,1,.79-.79H145a.79.79,0,0,1,.79.79Z" style="fill: #939699"/>
        <rect x="117.23" y="50.23" width="11.09" height="11.09" rx="1.58" style="fill: #6d8c9e"/>
        <rect x="131.5" y="50.23" width="11.09" height="11.09" rx="1.58" style="fill: #6d8c9e"/>
        <rect x="145.76" y="50.23" width="11.09" height="11.09" rx="1.58" style="fill: #6d8c9e"/>
        <rect x="117.23" y="64.5" width="11.09" height="11.09" rx="1.58" style="fill: #6d8c9e"/>
        <rect x="131.5" y="64.5" width="11.09" height="11.09" rx="1.58" style="fill: #6d8c9e"/>
        <rect x="145.76" y="64.5" width="11.09" height="11.09" rx="1.58" style="fill: #6d8c9e"/>
        <rect x="117.23" y="78.76" width="11.09" height="11.09" rx="1.58" style="fill: #6d8c9e"/>
        <rect x="131.5" y="78.76" width="11.09" height="11.09" rx="1.58" style="fill: #6d8c9e"/>
        <rect x="145.76" y="78.76" width="11.09" height="11.09" rx="1.58" style="fill: #6d8c9e"/>
        <rect x="117.23" y="93.03" width="11.09" height="11.09" rx="1.58" style="fill: #6d8c9e"/>
        <rect x="131.5" y="93.03" width="11.09" height="11.09" rx="1.58" style="fill: #6d8c9e"/>
        <rect x="117.23" y="78.76" width="11.09" height="11.09" rx="1.58" style="fill: #8aadbf"/>
        <rect x="117.23" y="50.23" width="11.09" height="11.09" rx="1.58" style="fill: #8aadbf"/>
        <rect x="117.23" y="64.5" width="11.09" height="11.09" rx="1.58" style="fill: #8aadbf"/>
        <path d="M126.74,93h-7.92a1.59,1.59,0,0,0-1.59,1.58v7.93a1.55,1.55,0,0,0,.47,1.11l10.16-10.16A1.55,1.55,0,0,0,126.74,93Z" style="fill: #8aadbf"/>
        <rect x="131.5" y="64.5" width="11.09" height="11.09" rx="1.58" style="fill: #8aadbf"/>
        <path d="M147.35,64.5a1.59,1.59,0,0,0-1.59,1.58V74a1.59,1.59,0,0,0,.47,1.12L156.39,65a1.61,1.61,0,0,0-1.12-.46Z" style="fill: #8aadbf"/>
        <path d="M133.08,78.76a1.59,1.59,0,0,0-1.58,1.59v7.92a1.61,1.61,0,0,0,.46,1.12l10.17-10.16a1.59,1.59,0,0,0-1.12-.47Z" style="fill: #8aadbf"/>
        <rect x="145.76" y="50.23" width="11.09" height="11.09" rx="1.58" style="fill: #8aadbf"/>
        <rect x="131.5" y="50.23" width="11.09" height="11.09" rx="1.58" style="fill: #8aadbf"/>
        <path class="an2smallbar" data-name="an2smallbar" d="M157.84,23.2a2.82,2.82,0,1,0,0,5.63,16.36,16.36,0,0,1,16.35,16.35,2.82,2.82,0,1,0,5.63,0A22,22,0,0,0,157.84,23.2Z" style="fill: #f29111"/>
        <path class="an2largebar" data-name="an2largebar" d="M157.84,10.43a2.82,2.82,0,1,0,0,5.63A29.15,29.15,0,0,1,187,45.18a2.82,2.82,0,1,0,5.63,0A34.79,34.79,0,0,0,157.84,10.43Z" style="fill: #f29111"/>
      </g>
      <g id="an2car">
        <path d="M234.76,96.54V95.29a5,5,0,0,0-3.66-4.85l-31.71-9.06c-21.06-12.78-36.78-20.22-60.65-20.22a336,336,0,0,0-58.11,5.06l2.53,5V83.9l-7.31,3.66a5,5,0,0,0-2.8,4.52l0,16a2.53,2.53,0,0,0,.73,1.78l6.09,6.1a2.54,2.54,0,0,0,1.79.74H226.14a2.52,2.52,0,0,0,1.78-.74l6.1-6.1a2.5,2.5,0,0,0,.74-1.79Z" style="fill: #4f6c7d"/>
        <path d="M217.32,103.41l0,0Z" style="fill: #cf7215"/>
        <path d="M217.35,103.43l0,0Z" style="fill: #65676a"/>
        <path d="M232.24,104.12h2.52V96.54h-2.52a2.52,2.52,0,0,0-2.53,2.52v2.53A2.53,2.53,0,0,0,232.24,104.12Z" style="fill: #f29111"/>
        <g>
          <path d="M108.79,83.64h27.72a1.68,1.68,0,0,0,1.62-2.15l-4-14a1.68,1.68,0,0,0-1.65-1.22l-1.46,0c-4.31.19-10.58.57-16.79,1a1.7,1.7,0,0,0-1.44,1l-5.56,13A1.69,1.69,0,0,0,108.79,83.64Z" style="fill: #bde6ee"/>
          <path d="M106.13,67.88c-2.5.25-7.72.81-11.14,1.24a.84.84,0,0,0-.58,1.31L100.89,80a.84.84,0,0,0,1.47-.14L107,69.05A.84.84,0,0,0,106.13,67.88Z" style="fill: #d3eef4"/>
        </g>
        <path d="M114.24,67.29a1.7,1.7,0,0,0-1.44,1l-5.56,13a1.69,1.69,0,0,0,1.55,2.35h2.43l17.19-17.2C124.36,66.65,119.29,67,114.24,67.29Z" style="fill: #d3eef4"/>
        <path d="M141.92,68.5,146,82.68a1.67,1.67,0,0,0,1.62,1.22h35.58a1.68,1.68,0,0,0,1.51-.93l.94-1.87a1.7,1.7,0,0,0-.71-2.24,116.15,116.15,0,0,0-19.27-8.53,93.86,93.86,0,0,0-22-4A1.69,1.69,0,0,0,141.92,68.5Z" style="fill: #bde6ee"/>
        <path d="M119.38,116.75a17.69,17.69,0,1,0-34.55,0Z" style="fill: #324b5c"/>
        <path d="M203.18,95.27a17.69,17.69,0,0,0-17.63,16.15l-50.75-2.2a2.52,2.52,0,0,0-1.89.74l-6.8,6.79h94.34a17.69,17.69,0,0,0-17.27-21.48Z" style="fill: #324b5c"/>
        <g>
          <path d="M217.07,113a13.9,13.9,0,1,1-13.89-13.89A13.91,13.91,0,0,1,217.07,113Z"/>
          <path d="M210.76,113a7.58,7.58,0,1,1-7.58-7.58A7.58,7.58,0,0,1,210.76,113Z" style="fill: #939699"/>
        </g>
        <g>
          <path d="M116,113a13.9,13.9,0,1,1-13.89-13.89A13.9,13.9,0,0,1,116,113Z"/>
          <path d="M109.69,113a7.58,7.58,0,1,1-7.58-7.58A7.58,7.58,0,0,1,109.69,113Z" style="fill: #939699"/>
        </g>
        <path d="M75.85,87.56l7.31-3.66V71.27L75.58,81.38V87.7A2.29,2.29,0,0,1,75.85,87.56Z" style="fill: #bde6ee"/>
        <path class="an2smallbar" data-name="an2smallbar" d="M135.92,45.4A2.55,2.55,0,0,0,139.53,49a14.85,14.85,0,0,1,21,0,2.56,2.56,0,0,0,3.62-3.61A20,20,0,0,0,135.92,45.4Z" style="fill: #f29111"/>
        <path class="an2largebar" data-name="an2largebar" d="M127.73,37.21a2.56,2.56,0,1,0,3.62,3.62,26.41,26.41,0,0,1,37.33,0,2.56,2.56,0,1,0,3.61-3.62A31.55,31.55,0,0,0,127.73,37.21Z" style="fill: #f29111"/>
      </g>
      <g id="an2house">
        <polygon points="149.39 66.92 115.84 100.48 115.84 133.53 182.95 133.53 182.95 100.48 149.39 66.92" style="fill: #6d8c9e;fill-rule: evenodd"/>
        <g>
          <rect x="138.91" y="104.17" width="20.97" height="29.36" style="fill: #324b5c"/>
          <polygon points="180.85 80.59 180.85 53.83 168.27 53.83 168.27 68 149.39 49.13 100.9 97.62 109.8 106.52 149.39 66.92 188.99 106.52 197.89 97.62 180.85 80.59" style="fill: #324b5c"/>
        </g>
        <path class="an2smallbar" data-name="an2smallbar" d="M133.49,36.82a2.76,2.76,0,1,0,3.91,3.91,16,16,0,0,1,22.67,0A2.76,2.76,0,0,0,164,36.82,21.6,21.6,0,0,0,133.49,36.82Z" style="fill: #f29111"/>
        <path class="an2largebar" data-name="an2largebar" d="M124.64,28a2.76,2.76,0,1,0,3.91,3.9,28.59,28.59,0,0,1,40.38,0,2.76,2.76,0,0,0,3.9-3.9A34.11,34.11,0,0,0,124.64,28Z" style="fill: #f29111"/>
      </g>
      <g id="an2tablet">
        <rect x="94.17" y="47.23" width="111.98" height="76.99" rx="5.25" style="fill: #4e5052"/>
        <rect x="104.67" y="52.48" width="89.23" height="66.49" style="fill: #bde6ee"/>
        <polygon points="104.67 52.48 104.67 118.96 113.42 118.96 179.9 52.48 104.67 52.48" style="fill: #d3eef4"/>
        <path d="M202.65,88.34A2.63,2.63,0,0,1,200,91h0a2.63,2.63,0,0,1-2.62-2.63V83.1A2.63,2.63,0,0,1,200,80.47h0a2.63,2.63,0,0,1,2.63,2.63Z" style="fill: #939699"/>
        <path d="M159.2,59.39a2.92,2.92,0,0,0-2.92,2.92v2.91a2.92,2.92,0,0,0,2.92,2.92H172L150.24,89.91,137.47,77.15,104.67,110v9H108l29.44-29.44,12.77,12.77,27.91-27.92V87.09A2.92,2.92,0,0,0,181.07,90H184a2.91,2.91,0,0,0,2.91-2.92V59.39H159.2Z" style="fill: #f29111"/>
        <rect x="104.67" y="52.48" width="89.23" height="66.49" style="fill: none"/>
        <g>
          <polygon points="137.47 77.15 104.67 109.96 104.67 118.96 108.03 118.96 137.47 89.52 140.16 92.21 146.35 86.03 137.47 77.15" style="fill: #f9b258"/>
          <path d="M159.2,59.39a2.92,2.92,0,0,0-2.92,2.92v2.91a2.92,2.92,0,0,0,2.92,2.92h5L173,59.39Z" style="fill: #f9b258"/>
        </g>
        <path class="an2smallbar" data-name="an2smallbar" d="M200.58,30.66a2.72,2.72,0,1,0,0,5.44,15.81,15.81,0,0,1,15.78,15.79,2.73,2.73,0,0,0,5.45,0A21.26,21.26,0,0,0,200.58,30.66Z" style="fill: #f29111"/>
        <path class="an2largebar" data-name="an2largebar" d="M200.58,18.32a2.73,2.73,0,1,0,0,5.45A28.15,28.15,0,0,1,228.7,51.89a2.72,2.72,0,1,0,5.44,0A33.61,33.61,0,0,0,200.58,18.32Z" style="fill: #f29111"/>
      </g>
      <g id="an2laptop">
        <path d="M193.33,101.83h-98a4.45,4.45,0,0,0-3.56,1.78l-18.7,24.94H215.59l-18.7-24.94A4.45,4.45,0,0,0,193.33,101.83Z" style="fill: #cbcece"/>
        <rect x="93.15" y="39.5" width="102.4" height="62.33" rx="2.23" style="fill: #939699"/>
        <rect x="97.6" y="43.95" width="93.5" height="53.43" style="fill: #bde6ee"/>
        <path d="M213.37,133h-138a2.22,2.22,0,0,1-2.22-2.23v-2.22H215.59v2.22A2.22,2.22,0,0,1,213.37,133Z" style="fill: #a6a9ab"/>
        <path d="M164.81,119.08a2.31,2.31,0,0,0-2.13-1.66H126a2.31,2.31,0,0,0-2.13,1.66l-1.39,5.58a1.27,1.27,0,0,0,1.3,1.66H164.9a1.27,1.27,0,0,0,1.3-1.66Z" style="fill: #a6a9ab"/>
        <g>
          <polygon points="102.96 106.57 99.31 106.57 100.74 104.76 104.27 104.76 102.96 106.57" style="fill: #939699"/>
          <polygon points="107.76 106.57 104.12 106.57 105.39 104.76 108.92 104.76 107.76 106.57" style="fill: #939699"/>
          <polygon points="112.56 106.57 108.92 106.57 110.04 104.76 113.57 104.76 112.56 106.57" style="fill: #939699"/>
          <polygon points="117.37 106.57 113.72 106.57 114.69 104.76 118.22 104.76 117.37 106.57" style="fill: #939699"/>
          <polygon points="122.17 106.57 118.52 106.57 119.34 104.76 122.87 104.76 122.17 106.57" style="fill: #939699"/>
          <polygon points="126.97 106.57 123.32 106.57 123.99 104.76 127.52 104.76 126.97 106.57" style="fill: #939699"/>
          <polygon points="131.77 106.57 128.13 106.57 128.64 104.76 132.17 104.76 131.77 106.57" style="fill: #939699"/>
          <polygon points="136.57 106.57 132.93 106.57 133.29 104.76 136.82 104.76 136.57 106.57" style="fill: #939699"/>
          <polygon points="141.38 106.57 137.73 106.57 137.94 104.76 141.47 104.76 141.38 106.57" style="fill: #939699"/>
          <polygon points="146.18 106.57 142.53 106.57 142.59 104.76 146.12 104.76 146.18 106.57" style="fill: #939699"/>
          <polygon points="150.98 106.57 147.33 106.57 147.24 104.76 150.77 104.76 150.98 106.57" style="fill: #939699"/>
          <polygon points="155.78 106.57 152.14 106.57 151.89 104.76 155.42 104.76 155.78 106.57" style="fill: #939699"/>
          <polygon points="160.58 106.57 156.94 106.57 156.54 104.76 160.07 104.76 160.58 106.57" style="fill: #939699"/>
          <polygon points="165.38 106.57 161.74 106.57 161.19 104.76 164.72 104.76 165.38 106.57" style="fill: #939699"/>
          <polygon points="170.19 106.57 166.54 106.57 165.84 104.76 169.37 104.76 170.19 106.57" style="fill: #939699"/>
          <polygon points="174.99 106.57 171.34 106.57 170.49 104.76 174.02 104.76 174.99 106.57" style="fill: #939699"/>
          <polygon points="179.79 106.57 176.15 106.57 175.14 104.76 178.67 104.76 179.79 106.57" style="fill: #939699"/>
          <polygon points="184.59 106.57 180.95 106.57 179.79 104.76 183.32 104.76 184.59 106.57" style="fill: #939699"/>
          <polygon points="189.4 106.57 185.75 106.57 184.44 104.76 187.97 104.76 189.4 106.57" style="fill: #939699"/>
          <polygon points="101.08 109.19 97.26 109.19 98.82 107.2 102.51 107.2 101.08 109.19" style="fill: #939699"/>
          <polygon points="106.09 109.19 102.28 109.19 103.68 107.2 107.36 107.2 106.09 109.19" style="fill: #939699"/>
          <polygon points="111.12 109.19 107.3 109.19 108.53 107.2 112.22 107.2 111.12 109.19" style="fill: #939699"/>
          <polygon points="116.14 109.19 112.33 109.19 113.39 107.2 117.07 107.2 116.14 109.19" style="fill: #939699"/>
          <polygon points="121.16 109.19 117.35 109.19 118.24 107.2 121.92 107.2 121.16 109.19" style="fill: #939699"/>
          <polygon points="126.18 109.19 122.37 109.19 123.09 107.2 126.78 107.2 126.18 109.19" style="fill: #939699"/>
          <polygon points="131.2 109.19 127.39 109.19 127.95 107.2 131.63 107.2 131.2 109.19" style="fill: #939699"/>
          <polygon points="136.22 109.19 132.41 109.19 132.8 107.2 136.49 107.2 136.22 109.19" style="fill: #939699"/>
          <polygon points="141.24 109.19 137.43 109.19 137.66 107.2 141.34 107.2 141.24 109.19" style="fill: #939699"/>
          <polygon points="146.26 109.19 142.45 109.19 142.51 107.2 146.2 107.2 146.26 109.19" style="fill: #939699"/>
          <polygon points="151.28 109.19 147.47 109.19 147.37 107.2 151.05 107.2 151.28 109.19" style="fill: #939699"/>
          <polygon points="156.3 109.19 152.49 109.19 152.22 107.2 155.91 107.2 156.3 109.19" style="fill: #939699"/>
          <polygon points="161.32 109.19 157.51 109.19 157.07 107.2 160.76 107.2 161.32 109.19" style="fill: #939699"/>
          <polygon points="166.34 109.19 162.53 109.19 161.93 107.2 165.62 107.2 166.34 109.19" style="fill: #939699"/>
          <polygon points="171.36 109.19 167.55 109.19 166.78 107.2 170.47 107.2 171.36 109.19" style="fill: #939699"/>
          <polygon points="176.38 109.19 172.57 109.19 171.64 107.2 175.32 107.2 176.38 109.19" style="fill: #939699"/>
          <polygon points="181.41 109.19 177.59 109.19 176.49 107.2 180.18 107.2 181.41 109.19" style="fill: #939699"/>
          <polygon points="186.43 109.19 182.61 109.19 181.35 107.2 185.03 107.2 186.43 109.19" style="fill: #939699"/>
          <polygon points="191.45 109.19 187.63 109.19 186.2 107.2 189.89 107.2 191.45 109.19" style="fill: #939699"/>
          <polygon points="99.01 112.04 95.02 112.04 96.72 109.87 100.58 109.87 99.01 112.04" style="fill: #939699"/>
          <polygon points="104.27 112.04 100.28 112.04 101.8 109.87 105.66 109.87 104.27 112.04" style="fill: #939699"/>
          <polygon points="109.53 112.04 105.54 112.04 106.88 109.87 110.73 109.87 109.53 112.04" style="fill: #939699"/>
          <polygon points="114.79 112.04 110.8 112.04 111.96 109.87 115.81 109.87 114.79 112.04" style="fill: #939699"/>
          <polygon points="120.05 112.04 116.06 112.04 117.04 109.87 120.89 109.87 120.05 112.04" style="fill: #939699"/>
          <polygon points="125.31 112.04 121.32 112.04 122.11 109.87 125.97 109.87 125.31 112.04" style="fill: #939699"/>
          <polygon points="130.57 112.04 126.58 112.04 127.19 109.87 131.05 109.87 130.57 112.04" style="fill: #939699"/>
          <polygon points="135.83 112.04 131.84 112.04 132.27 109.87 136.13 109.87 135.83 112.04" style="fill: #939699"/>
          <polygon points="141.09 112.04 137.1 112.04 137.35 109.87 141.2 109.87 141.09 112.04" style="fill: #939699"/>
          <polygon points="146.35 112.04 142.36 112.04 142.43 109.87 146.28 109.87 146.35 112.04" style="fill: #939699"/>
          <polygon points="151.61 112.04 147.62 112.04 147.5 109.87 151.36 109.87 151.61 112.04" style="fill: #939699"/>
          <polygon points="156.87 112.04 152.88 112.04 152.58 109.87 156.44 109.87 156.87 112.04" style="fill: #939699"/>
          <polygon points="162.13 112.04 158.14 112.04 157.66 109.87 161.52 109.87 162.13 112.04" style="fill: #939699"/>
          <polygon points="167.39 112.04 163.4 112.04 162.74 109.87 166.59 109.87 167.39 112.04" style="fill: #939699"/>
          <polygon points="172.65 112.04 168.66 112.04 167.82 109.87 171.67 109.87 172.65 112.04" style="fill: #939699"/>
          <polygon points="177.91 112.04 173.92 112.04 172.9 109.87 176.75 109.87 177.91 112.04" style="fill: #939699"/>
          <polygon points="183.17 112.04 179.18 112.04 177.97 109.87 181.83 109.87 183.17 112.04" style="fill: #939699"/>
          <polygon points="188.43 112.04 184.44 112.04 183.05 109.87 186.91 109.87 188.43 112.04" style="fill: #939699"/>
          <polygon points="196.16 115.19 191.97 115.19 188.13 109.87 191.99 109.87 196.16 115.19" style="fill: #939699"/>
          <polygon points="96.74 115.19 92.54 115.19 94.42 112.8 98.47 112.8 96.74 115.19" style="fill: #939699"/>
          <polygon points="102.26 115.19 98.07 115.19 99.75 112.8 103.79 112.8 102.26 115.19" style="fill: #939699"/>
          <polygon points="168.55 115.19 103.59 115.19 105.07 112.8 167.67 112.8 168.55 115.19" style="fill: #939699"/>
          <polygon points="174.07 115.19 169.88 115.19 168.95 112.8 172.99 112.8 174.07 115.19" style="fill: #939699"/>
          <polygon points="179.59 115.19 175.4 115.19 174.27 112.8 178.31 112.8 179.59 115.19" style="fill: #939699"/>
          <polygon points="185.12 115.19 180.92 115.19 179.6 112.8 183.64 112.8 185.12 115.19" style="fill: #939699"/>
          <polygon points="190.64 115.19 186.45 115.19 184.92 112.8 188.96 112.8 190.64 115.19" style="fill: #939699"/>
        </g>
        <polygon points="143.84 73.57 143.84 73.57 143.84 73.57 143.84 73.57" style="fill: #fff"/>
        <polygon points="143.84 73.57 143.84 73.57 143.84 73.57 143.84 73.57" style="fill: #fff"/>
        <polygon points="97.61 43.95 97.61 97.38 110.96 97.38 113.19 95.16 164.39 43.95 97.61 43.95" style="fill: #d3eef4"/>
        <path class="an2smallbar" data-name="an2smallbar" d="M190.28,23.35a2.48,2.48,0,1,0,0,5,14.4,14.4,0,0,1,14.38,14.38,2.48,2.48,0,0,0,5,0A19.36,19.36,0,0,0,190.28,23.35Z" style="fill: #f29111"/>
        <path class="an2largebar" data-name="an2largebar" d="M190.28,12.11a2.48,2.48,0,1,0,0,5A25.65,25.65,0,0,1,215.9,42.69a2.48,2.48,0,1,0,4.95,0A30.61,30.61,0,0,0,190.28,12.11Z" style="fill: #f29111"/>
      </g>
    </g>
</svg>