<svg xmlns="http://www.w3.org/2000/svg" viewBox="0 0 450 200">
    <g id="Animation5">
      <rect width="450" height="200" style="fill: none"/>
      <g id="an5signal">
        <g id="an5leftsignal2">
          <path d="M158.34,96.28a3.48,3.48,0,0,1-2.51-1.06,52.54,52.54,0,0,1,0-73.16,3.5,3.5,0,0,1,5,0,3.66,3.66,0,0,1,0,5.1,45.2,45.2,0,0,0,0,63,3.66,3.66,0,0,1,0,5.1A3.48,3.48,0,0,1,158.34,96.28Z" style="fill: #dee0e0"/>
        </g>
        <g id="an5leftsignal1">
          <path d="M171.68,82.67a3.46,3.46,0,0,1-2.5-1.06,32.94,32.94,0,0,1,0-45.94,3.48,3.48,0,0,1,5,0,3.66,3.66,0,0,1,0,5.1,25.62,25.62,0,0,0,0,35.74,3.66,3.66,0,0,1,0,5.1A3.46,3.46,0,0,1,171.68,82.67Z" style="fill: #dee0e0"/>
        </g>
        <g id="an5rightsignal2">
          <path d="M274.66,96.28a3.48,3.48,0,0,1-2.5-1.06,3.66,3.66,0,0,1,0-5.1,45.2,45.2,0,0,0,0-63,3.66,3.66,0,0,1,0-5.1,3.5,3.5,0,0,1,5,0,52.54,52.54,0,0,1,0,73.16A3.48,3.48,0,0,1,274.66,96.28Z" style="fill: #dee0e0"/>
        </g>
        <g id="an5rightsignal1">
          <path d="M261.32,82.67a3.46,3.46,0,0,1-2.5-1.06,3.66,3.66,0,0,1,0-5.1,25.62,25.62,0,0,0,0-35.74,3.66,3.66,0,0,1,0-5.1,3.48,3.48,0,0,1,5,0,32.94,32.94,0,0,1,0,45.94A3.46,3.46,0,0,1,261.32,82.67Z" style="fill: #dee0e0"/>
        </g>
      </g>
      <g>
        <path d="M241.1,159.54,220,145.6V122.46L234.49,132l-1.63-6.82L220,116.72V71.83l-2.95-12.28a3.51,3.51,0,0,0-1.18,0L213,71.83V112l-8.33-5.52-1.19,5,9.52,6.3v23.14l-14.31-9.47-1.19,4.95L213,146.65v24.74A3.58,3.58,0,0,0,216.4,175h.2a3.58,3.58,0,0,0,3.44-3.61V151.33l22.7,15Z" style="fill: #324b5c"/>
        <path d="M248.25,170.51l-26-106.2h8.45v9.63a4.77,4.77,0,0,0,4.72,4.81h4.71V40.25h-4.71a4.76,4.76,0,0,0-4.72,4.81v9.63h-9.44V45.06a4.72,4.72,0,1,0-9.44,0v9.63h-9.44V45.06a4.76,4.76,0,0,0-4.71-4.81h-4.72v38.5h4.72a4.77,4.77,0,0,0,4.71-4.81V64.31h8.45l-26,106.2a3.62,3.62,0,0,0,2.58,4.38,3.52,3.52,0,0,0,4.29-2.63l2-8.12L233,138.07l8.38,34.19a3.55,3.55,0,0,0,3.43,2.74,3.69,3.69,0,0,0,.86-.11A3.62,3.62,0,0,0,248.25,170.51ZM216.5,70.77l9.2,37.52-22,14.54Zm-21.21,86.52,6.77-27.62,24.85-16.44,4.88,19.91Z" style="fill: #4f6c7d"/>
      </g>
      <g id="an5text1">
        <path d="M27.85,30H22.6V28.61H34.48V30H29.33l0,14.9H27.87Z" style="fill: #324b5c"/>
        <path d="M34.8,39.52c0,2.41,1.14,4.44,3.91,4.44A3.37,3.37,0,0,0,42,41.25h1.41a4.72,4.72,0,0,1-5.1,3.94c-3.38,0-5-2.9-5-6s1.69-6,5.05-6c3.78,0,5.15,2.77,5.15,6.3Zm7.27-1.24c-.16-2.18-1.33-3.82-3.67-3.82S35,36.3,34.84,38.28Z" style="fill: #324b5c"/>
        <path d="M47.89,44.86H46.54V28.61h1.35Z" style="fill: #324b5c"/>
        <path d="M52.3,39.52c.05,2.41,1.15,4.44,3.92,4.44a3.36,3.36,0,0,0,3.26-2.71H60.9a4.74,4.74,0,0,1-5.11,3.94c-3.38,0-4.95-2.9-4.95-6s1.69-6,5-6c3.78,0,5.15,2.77,5.15,6.3Zm7.27-1.24c-.16-2.18-1.33-3.82-3.67-3.82s-3.37,1.84-3.55,3.82Z" style="fill: #324b5c"/>
        <path d="M71.16,37c-.11-1.73-1.22-2.56-3.09-2.56-2.07,0-3.35,2.16-3.35,4.72S66,44,68.07,44a2.86,2.86,0,0,0,3.09-2.64h1.46c-.36,2.59-1.84,3.87-4.41,3.87-3.38,0-4.95-2.9-4.95-6s1.69-6,5-6A4,4,0,0,1,72.62,37Z" style="fill: #324b5c"/>
        <path d="M85,39.21c0,3-1.67,6-5.27,6s-5.27-3-5.27-6,1.67-6,5.27-6S85,36.24,85,39.21Zm-5.27-4.75c-2.72,0-3.8,2.65-3.8,4.75S77,44,79.73,44s3.8-2.66,3.8-4.75S82.45,34.46,79.73,34.46Z" style="fill: #324b5c"/>
        <path d="M89.11,35.22l0,.05a3.87,3.87,0,0,1,3.53-2.05,3.71,3.71,0,0,1,3.67,2.48,4.69,4.69,0,0,1,3.89-2.48c3.69,0,4,3.26,4,4.57v7.07h-1.36v-7.3a2.79,2.79,0,0,0-3-3.1c-2.22,0-3.24,1.87-3.24,3.89v6.51H95.32v-7.3a2.79,2.79,0,0,0-3-3.1c-2.23,0-3.24,1.87-3.24,3.89v6.51H87.76V36.1c0-.88-.07-1.78-.11-2.54H89Z" style="fill: #324b5c"/>
        <path d="M31.22,62c-.11-1.73-1.21-2.56-3.08-2.56-2.07,0-3.36,2.16-3.36,4.72S26.07,69,28.14,69a2.86,2.86,0,0,0,3.08-2.64h1.46c-.36,2.59-1.84,3.87-4.41,3.87-3.37,0-4.95-2.9-4.95-6s1.69-6,5-6A4,4,0,0,1,32.68,62Z" style="fill: #324b5c"/>
        <path d="M45.06,64.21c0,3-1.67,6-5.27,6s-5.26-3-5.26-6,1.66-6,5.26-6S45.06,61.24,45.06,64.21Zm-5.27-4.75c-2.72,0-3.8,2.65-3.8,4.75S37.07,69,39.79,69s3.81-2.66,3.81-4.75S42.52,59.46,39.79,59.46Z" style="fill: #324b5c"/>
        <path d="M49.17,60.22l0,.05a3.88,3.88,0,0,1,3.53-2.05,3.7,3.7,0,0,1,3.67,2.48,4.69,4.69,0,0,1,3.89-2.48c3.7,0,4,3.26,4,4.57v7.07H63v-7.3a2.8,2.8,0,0,0-3-3.1c-2.23,0-3.24,1.87-3.24,3.89v6.51H55.39v-7.3a2.8,2.8,0,0,0-3-3.1c-2.23,0-3.25,1.87-3.25,3.89v6.51H47.82V61.1c0-.88-.06-1.78-.11-2.54h1.4Z" style="fill: #324b5c"/>
        <path d="M69,74.18H67.62V61.1a25.3,25.3,0,0,0-.11-2.54h1.4L69,60.22l0,.05a4.51,4.51,0,0,1,3.87-2.05c3.35,0,4.64,3,4.64,5.94s-1.29,6-4.57,6A4.61,4.61,0,0,1,69,68.1h0ZM72.82,69c2.59,0,3.24-2.86,3.24-5s-.87-4.54-3.44-4.54S69,61.64,69,63.94C69,66.5,69.87,69,72.82,69Z" style="fill: #324b5c"/>
        <path d="M87.92,58.56h1.35v8.75c0,.88.07,1.78.11,2.55H88l-.07-1.67,0,0a3.88,3.88,0,0,1-3.54,2c-3.69,0-4-3.26-4-4.57V58.56h1.35v7.29a2.79,2.79,0,0,0,3,3.11c2.23,0,3.24-1.87,3.24-3.9Z" style="fill: #324b5c"/>
        <path d="M93.84,59.79H91.59V58.56h2.25V56.15l1.35-.59v3h2.56v1.23H95.19v7.57A1.39,1.39,0,0,0,96.74,69a4.08,4.08,0,0,0,1.17-.14V70a5.74,5.74,0,0,1-1.37.2c-2.86,0-2.7-1.82-2.7-3.35Z" style="fill: #324b5c"/>
        <path d="M101.15,64.52c0,2.41,1.15,4.44,3.91,4.44a3.37,3.37,0,0,0,3.27-2.71h1.42a4.74,4.74,0,0,1-5.11,3.94c-3.38,0-5-2.9-5-6s1.68-6,5-6c3.78,0,5.15,2.77,5.15,6.3Zm7.27-1.24c-.16-2.18-1.33-3.82-3.67-3.82s-3.38,1.84-3.56,3.82Z" style="fill: #324b5c"/>
        <path d="M27.55,85.27c-1-1.15-2.14-2.43-2.14-4,0-2,1.78-3,3.56-3s3.62.88,3.62,2.88-1.55,3.19-3,4.27l4.75,5.07a14.92,14.92,0,0,0,1-6H37c-.22,2.36-.38,4.93-1.62,7l3.09,3.36h-2.1L34.42,92.7a6.21,6.21,0,0,1-5,2.49c-3.28,0-5.94-1.82-5.94-4.79,0-2.48,2.14-3.83,4-5A.37.37,0,0,1,27.55,85.27Zm.93,1c-1.08.7-3.4,2.39-3.4,3.8,0,2.37,2,3.76,4.23,3.76a5.54,5.54,0,0,0,4.25-2.09Zm2.54-5c0-1.1-1-1.62-2-1.62S27,80.07,27,81.24s1,2.43,1.76,3.24C29.67,83.58,31,82.66,31,81.24Z" style="fill: #324b5c"/>
        <path d="M50.34,83.22c2.14,0,3.94.74,4.12,3.13H53c-.13-1.42-1.4-1.89-2.79-1.89s-2.54.49-2.54,1.82c0,1.67,2.18,1.51,5.24,2.59a2.74,2.74,0,0,1,1.91,2.63c0,2.54-2.36,3.69-4.75,3.69-2,0-4.2-.92-4.25-3.42h1.46c.12,1.69,1.6,2.19,3.13,2.19s3-.68,3-2.26-1.78-1.89-3.58-2.29-3.58-1-3.58-3C46.2,84,48.36,83.22,50.34,83.22Z" style="fill: #324b5c"/>
        <path d="M58.8,84.79H56.55V83.56H58.8V81.15l1.35-.59v3h2.57v1.23H60.15v7.57A1.4,1.4,0,0,0,61.71,94a4.08,4.08,0,0,0,1.17-.14V95a5.75,5.75,0,0,1-1.38.2c-2.85,0-2.7-1.82-2.7-3.35Z" style="fill: #324b5c"/>
        <path d="M75.05,89.21c0,3-1.66,6-5.27,6s-5.26-3-5.26-6,1.66-6,5.26-6S75.05,86.24,75.05,89.21Zm-5.27-4.75c-2.72,0-3.8,2.65-3.8,4.75S67.06,94,69.78,94s3.81-2.66,3.81-4.75S72.51,84.46,69.78,84.46Z" style="fill: #324b5c"/>
        <path d="M79.19,94.86H77.84V86.1c0-.88-.07-1.78-.11-2.54h1.39l.07,1.66h0a2.92,2.92,0,0,1,2.55-2c.45,0,.9,0,1.35,0v1.31a8,8,0,0,0-.84-.09c-2,0-3.06,1.44-3.1,3.6Z" style="fill: #324b5c"/>
        <path d="M91.72,86.89C91.59,85,90.64,84.46,89,84.46c-1.41,0-2.58.42-2.76,2H84.83c.34-2.32,2.08-3.2,4.24-3.2,2.49,0,4.05,1.15,4,3.74v5.35c0,.88.07,1.78.12,2.55h-1.4l-.05-1.67h0l-.07.16a4.24,4.24,0,0,1-3.53,1.84,3.49,3.49,0,0,1-1.49-6.75c1.51-.65,3.47-.43,5.11-.52ZM88.35,94c2.94,0,3.51-2.44,3.37-4.8-1.91.07-5.92-.29-5.92,2.54A2.26,2.26,0,0,0,88.35,94Z" style="fill: #324b5c"/>
        <path d="M104.44,83.56h1.39c0,.76-.11,1.66-.11,2.54v6.78c0,2.25.11,4.61-2.39,5.78a5.12,5.12,0,0,1-2.56.52c-2,0-4.48-.7-4.48-3h1.46c.16,1.35,1.76,1.8,3.2,1.8a3.3,3.3,0,0,0,3.42-3.13V92.7h-.05a4.14,4.14,0,0,1-3.67,2.11c-3.39,0-4.86-2.59-4.86-5.69s1.38-5.9,4.82-5.9a4.32,4.32,0,0,1,3.71,2.09l.05-.09Zm-3.7.9c-2.45,0-3.48,2.47-3.48,4.54s1,4.57,3.53,4.57,3.58-2.41,3.58-4.61S103.17,84.46,100.74,84.46Z" style="fill: #324b5c"/>
        <path d="M109.88,89.52c0,2.41,1.15,4.44,3.91,4.44a3.37,3.37,0,0,0,3.27-2.71h1.42a4.74,4.74,0,0,1-5.11,3.94c-3.38,0-5-2.9-5-6s1.68-6,5-6c3.78,0,5.15,2.77,5.15,6.3Zm7.27-1.24c-.16-2.18-1.33-3.82-3.67-3.82s-3.38,1.84-3.56,3.82Z" style="fill: #324b5c"/>
        <path d="M25.57,105.29H24v-1.68h1.57Zm-.11,3.27v11.3H24.11v-11.3Z" style="fill: #324b5c"/>
        <path d="M30.43,119.86H29.08V111.1c0-.88-.07-1.78-.11-2.54h1.39l.07,1.66.05,0a3.87,3.87,0,0,1,3.53-2c3.69,0,4,3.26,4,4.57v7.07H36.64v-7.3a2.79,2.79,0,0,0-3-3.1c-2.23,0-3.24,1.87-3.24,3.89Z" style="fill: #324b5c"/>
        <path d="M42.56,119.86V109.79H40.29v-1.23h2.27v-2.41c0-1.94.79-2.81,2.72-2.81a6,6,0,0,1,1.28.24v1.08a5.85,5.85,0,0,0-.83-.09c-1.84,0-1.89.93-1.82,2.55v1.44h2.57v1.23H43.91v10.07Z" style="fill: #324b5c"/>
        <path d="M50.43,119.86H49.08V111.1a25.3,25.3,0,0,0-.11-2.54h1.4l.06,1.66h0a2.9,2.9,0,0,1,2.54-2c.45,0,.9,0,1.35,0v1.31a7.8,7.8,0,0,0-.83-.09c-2,0-3.06,1.44-3.11,3.6Z" style="fill: #324b5c"/>
        <path d="M63,111.89c-.14-1.85-1.08-2.43-2.68-2.43-1.42,0-2.59.42-2.77,2H56.08c.34-2.32,2.07-3.2,4.23-3.2,2.5,0,4,1.15,4,3.74v5.35c0,.88.07,1.78.11,2.55H63l0-1.67h-.05l-.06.16a4.27,4.27,0,0,1-3.54,1.84,3.49,3.49,0,0,1-1.48-6.75c1.51-.65,3.46-.43,5.11-.52ZM59.59,119c2.95,0,3.51-2.44,3.38-4.8-1.92.07-5.92-.29-5.92,2.54A2.26,2.26,0,0,0,59.59,119Z" style="fill: #324b5c"/>
        <path d="M71.58,108.22c2.14,0,3.94.74,4.12,3.13H74.24c-.14-1.42-1.4-1.89-2.79-1.89s-2.54.49-2.54,1.82c0,1.67,2.18,1.51,5.24,2.59a2.74,2.74,0,0,1,1.91,2.63c0,2.54-2.36,3.69-4.75,3.69-2,0-4.2-.92-4.25-3.42h1.46c.12,1.69,1.6,2.19,3.13,2.19s2.95-.68,2.95-2.26-1.78-1.89-3.58-2.29-3.58-1-3.58-3C67.44,109,69.6,108.22,71.58,108.22Z" style="fill: #324b5c"/>
        <path d="M80,109.79H77.79v-1.23H80v-2.41l1.35-.59v3H84v1.23H81.39v7.57A1.4,1.4,0,0,0,83,119a4.08,4.08,0,0,0,1.17-.14V120a5.82,5.82,0,0,1-1.38.2c-2.85,0-2.7-1.82-2.7-3.35Z" style="fill: #324b5c"/>
        <path d="M87.92,119.86H86.57V111.1c0-.88-.07-1.78-.11-2.54h1.39l.07,1.66h0a2.92,2.92,0,0,1,2.55-2c.45,0,.9,0,1.35,0v1.31a8,8,0,0,0-.84-.09c-2,0-3.06,1.44-3.1,3.6Z" style="fill: #324b5c"/>
        <path d="M101.06,108.56h1.35v8.75c0,.88.07,1.78.11,2.55h-1.39l-.07-1.67,0,0a3.87,3.87,0,0,1-3.53,2c-3.69,0-4-3.26-4-4.57v-7.06h1.35v7.29a2.79,2.79,0,0,0,3,3.11c2.23,0,3.24-1.87,3.24-3.9Z" style="fill: #324b5c"/>
        <path d="M113.14,112c-.11-1.73-1.21-2.56-3.08-2.56-2.07,0-3.36,2.16-3.36,4.72S108,119,110.06,119a2.86,2.86,0,0,0,3.08-2.64h1.46c-.36,2.59-1.84,3.87-4.41,3.87-3.37,0-5-2.9-5-6s1.69-6,5-6a4,4,0,0,1,4.32,3.8Z" style="fill: #324b5c"/>
        <path d="M118.23,109.79H116v-1.23h2.26v-2.41l1.35-.59v3h2.56v1.23h-2.56v7.57a1.39,1.39,0,0,0,1.55,1.6,4.08,4.08,0,0,0,1.17-.14V120a5.74,5.74,0,0,1-1.37.2c-2.86,0-2.7-1.82-2.7-3.35Z" style="fill: #324b5c"/>
        <path d="M131.75,108.56h1.35v8.75c0,.88.07,1.78.11,2.55h-1.39l-.07-1.67-.05,0a3.87,3.87,0,0,1-3.53,2c-3.69,0-4-3.26-4-4.57v-7.06h1.35v7.29a2.79,2.79,0,0,0,3,3.11c2.23,0,3.24-1.87,3.24-3.9Z" style="fill: #324b5c"/>
        <path d="M138.05,119.86H136.7V111.1c0-.88-.07-1.78-.12-2.54H138l.07,1.66h0a2.92,2.92,0,0,1,2.55-2c.45,0,.9,0,1.35,0v1.31a8,8,0,0,0-.84-.09c-2,0-3.06,1.44-3.1,3.6Z" style="fill: #324b5c"/>
        <path d="M145,114.52c0,2.41,1.14,4.44,3.91,4.44a3.37,3.37,0,0,0,3.27-2.71h1.41a4.73,4.73,0,0,1-5.11,3.94c-3.37,0-5-2.9-5-6s1.69-6,5.05-6c3.78,0,5.15,2.77,5.15,6.3Zm7.27-1.24c-.16-2.18-1.33-3.82-3.67-3.82s-3.38,1.84-3.56,3.82Z" style="fill: #324b5c"/>
        <path d="M25.21,149.18H23.86V136.1c0-.88-.07-1.78-.11-2.54h1.39l.07,1.66.05.05a4.5,4.5,0,0,1,3.87-2.05c3.35,0,4.63,3,4.63,5.94s-1.28,6-4.56,6a4.61,4.61,0,0,1-3.94-2.09h-.05ZM29.06,144c2.59,0,3.24-2.86,3.24-5s-.88-4.54-3.44-4.54-3.65,2.18-3.65,4.48C25.21,141.5,26.11,144,29.06,144Z" style="fill: #324b5c"/>
        <path d="M38,144.86H36.6V136.1c0-.88-.07-1.78-.12-2.54h1.4l.07,1.66h0a2.92,2.92,0,0,1,2.55-2c.45,0,.9,0,1.35,0v1.31a8,8,0,0,0-.84-.09c-2,0-3.06,1.44-3.1,3.6Z" style="fill: #324b5c"/>
        <path d="M53.81,139.21c0,3-1.66,6-5.27,6s-5.26-3-5.26-6,1.66-6,5.26-6S53.81,136.24,53.81,139.21Zm-5.27-4.75c-2.72,0-3.8,2.65-3.8,4.75s1.08,4.75,3.8,4.75,3.81-2.66,3.81-4.75S51.27,134.46,48.54,134.46Z" style="fill: #324b5c"/>
        <path d="M54.87,147.94c2,0,1.75-.52,1.75-3.47V133.56H58v11.79c0,2.9-.07,3.92-3.1,3.83Zm3.21-17.65H56.51v-1.68h1.57Z" style="fill: #324b5c"/>
        <path d="M62.38,139.52c0,2.41,1.15,4.44,3.92,4.44a3.36,3.36,0,0,0,3.26-2.71H71a4.74,4.74,0,0,1-5.11,3.94c-3.38,0-5-2.9-5-6s1.69-6,5-6c3.78,0,5.15,2.77,5.15,6.3Zm7.27-1.24c-.16-2.18-1.33-3.82-3.67-3.82s-3.37,1.84-3.55,3.82Z" style="fill: #324b5c"/>
        <path d="M81.24,137c-.12-1.73-1.22-2.56-3.09-2.56-2.07,0-3.35,2.16-3.35,4.72S76.08,144,78.15,144a2.86,2.86,0,0,0,3.09-2.64H82.7a4,4,0,0,1-4.41,3.87c-3.38,0-5-2.9-5-6s1.69-6,5-6A4,4,0,0,1,82.7,137Z" style="fill: #324b5c"/>
        <path d="M86.32,134.79H84.07v-1.23h2.25v-2.41l1.35-.59v3h2.57v1.23H87.67v7.57a1.4,1.4,0,0,0,1.55,1.6,4,4,0,0,0,1.17-.14V145a5.67,5.67,0,0,1-1.37.2c-2.86,0-2.7-1.82-2.7-3.35Z" style="fill: #324b5c"/>
        <path d="M93.63,139.52c.05,2.41,1.15,4.44,3.92,4.44a3.36,3.36,0,0,0,3.26-2.71h1.42a4.74,4.74,0,0,1-5.11,3.94c-3.37,0-5-2.9-5-6s1.69-6,5-6c3.78,0,5.16,2.77,5.16,6.3Zm7.27-1.24c-.16-2.18-1.33-3.82-3.67-3.82s-3.37,1.84-3.55,3.82Z" style="fill: #324b5c"/>
        <path d="M113.14,143.19l0-.09a4.6,4.6,0,0,1-3.87,2.09c-3.36,0-4.64-3.19-4.64-6s1.28-5.94,4.64-5.94a4.52,4.52,0,0,1,3.87,2.05l0-.05v-6.61h1.35v13.7c0,.88.07,1.78.11,2.55h-1.39Zm-3.69-8.73c-2.56,0-3.4,2.38-3.4,4.54s.61,5,3.2,5c3,0,3.85-2.46,3.85-5C113.1,136.64,112.08,134.46,109.45,134.46Z" style="fill: #324b5c"/>
        <path d="M27.85,158.22c2.13,0,3.93.74,4.11,3.13H30.5c-.13-1.42-1.39-1.89-2.79-1.89s-2.54.49-2.54,1.82c0,1.67,2.18,1.51,5.24,2.59a2.74,2.74,0,0,1,1.91,2.63c0,2.54-2.36,3.69-4.74,3.69-2,0-4.21-.92-4.26-3.42h1.46c.12,1.69,1.6,2.19,3.13,2.19s2.95-.68,2.95-2.26-1.78-1.89-3.58-2.29-3.58-.95-3.58-3C23.7,159,25.86,158.22,27.85,158.22Z" style="fill: #324b5c"/>
        <path d="M36.46,174.18H35.11V161.1c0-.88-.07-1.78-.11-2.54h1.39l.07,1.66,0,.05a4.5,4.5,0,0,1,3.87-2.05c3.35,0,4.63,3,4.63,5.94s-1.28,6-4.56,6a4.61,4.61,0,0,1-3.94-2.09h0ZM40.31,169c2.59,0,3.24-2.86,3.24-5s-.88-4.54-3.44-4.54-3.65,2.18-3.65,4.48C36.46,166.5,37.36,169,40.31,169Z" style="fill: #324b5c"/>
        <path d="M48.63,164.52c0,2.41,1.15,4.44,3.92,4.44a3.36,3.36,0,0,0,3.26-2.71h1.42a4.73,4.73,0,0,1-5.11,3.94c-3.37,0-4.95-2.9-4.95-6s1.69-6,5-6c3.78,0,5.16,2.77,5.16,6.3Zm7.27-1.24c-.15-2.18-1.32-3.82-3.66-3.82s-3.38,1.84-3.56,3.82Z" style="fill: #324b5c"/>
        <path d="M61.71,169.86H60.36V161.1c0-.88-.07-1.78-.12-2.54h1.4l.07,1.66,0,.05a3.88,3.88,0,0,1,3.54-2.05c3.69,0,4,3.26,4,4.57v7.07H67.92v-7.3a2.8,2.8,0,0,0-3-3.1c-2.23,0-3.24,1.87-3.24,3.89Z" style="fill: #324b5c"/>
        <path d="M80.65,168.19l0-.09a4.59,4.59,0,0,1-3.87,2.09c-3.36,0-4.64-3.19-4.64-6s1.28-5.94,4.64-5.94a4.51,4.51,0,0,1,3.87,2.05l0-.05v-6.61H82v13.7c0,.88.07,1.78.12,2.55h-1.4ZM77,159.46c-2.56,0-3.4,2.38-3.4,4.54s.61,5,3.2,5c2.95,0,3.85-2.46,3.85-5C80.61,161.64,79.6,159.46,77,159.46Z" style="fill: #324b5c"/>
        <path d="M92.69,169.86h-1.4c0-.77.12-1.67.12-2.55v-13.7h1.35v6.61l0,.05a4.51,4.51,0,0,1,3.87-2.05c3.36,0,4.64,3,4.64,5.94s-1.28,6-4.57,6a4.62,4.62,0,0,1-3.94-2.09l0,.09Zm.07-5.88c0,2.57.9,5,3.84,5,2.59,0,3.25-2.82,3.25-4.91s-.88-4.59-3.45-4.59S92.76,161.69,92.76,164Z" style="fill: #324b5c"/>
        <path d="M103.71,158.56l3.81,9.45,3.78-9.45h1.46l-6.23,15.62H105l1.71-4.32-4.68-11.3Z" style="fill: #324b5c"/>
        <path d="M120.52,169.86v-1.53c2-1.83,8-7.48,8-10.27,0-1.82-1.44-2.77-3.13-2.77a3,3,0,0,0-3.15,3.11h-1.57c0-2.75,2.07-4.46,4.77-4.46,2.5,0,4.66,1.33,4.66,4,0,3.65-5.43,8.22-7.83,10.53h8v1.36Z" style="fill: #324b5c"/>
        <path d="M143.34,162.07c0,4-.92,8.12-5.18,8.12S133,166,133,162.07s.92-8.13,5.17-8.13S143.34,158.11,143.34,162.07Zm-8.78,0c0,2.32.29,6.77,3.6,6.77s3.6-4.45,3.6-6.77-.29-6.78-3.6-6.78S134.56,159.75,134.56,162.07Z" style="fill: #324b5c"/>
        <path d="M145.54,169.86v-1.53c2-1.83,8-7.48,8-10.27,0-1.82-1.44-2.77-3.13-2.77a3,3,0,0,0-3.15,3.11H145.7c0-2.75,2.07-4.46,4.77-4.46,2.5,0,4.66,1.33,4.66,4,0,3.65-5.43,8.22-7.84,10.53h8v1.36Z" style="fill: #324b5c"/>
        <path d="M158.05,169.86v-1.53c2-1.83,8-7.48,8-10.27,0-1.82-1.44-2.77-3.13-2.77a3,3,0,0,0-3.15,3.11h-1.57c0-2.75,2.07-4.46,4.77-4.46,2.5,0,4.66,1.33,4.66,4,0,3.65-5.43,8.22-7.84,10.53h8v1.36Z" style="fill: #324b5c"/>
        <path d="M173.46,158.56v1.93h-1.8v-1.93Zm0,9.36v1.94h-1.8v-1.94Z" style="fill: #324b5c"/>
      </g>
      <g id="An5text1-2" data-name="An5text1">
        <path d="M275.6,35.83a60,60,0,0,0,12.87-7.47h10.36V79.57h-11.1V39.46A58.35,58.35,0,0,1,275.6,46Z" style="fill: #942645"/>
        <path d="M329.62,40.72a6.83,6.83,0,0,0-1.7-4.67,6,6,0,0,0-4.22-1.4c-6.66,0-7.25,11-7.25,15.47,2.59-2.82,5.84-3.78,9.62-3.78,9.54,0,15.76,6.59,15.76,15.84,0,5.33-1.7,9.69-4.14,12.43-2.67,3-8.59,6.07-14.88,6.07-12.06,0-17.84-7.47-17.84-22.35,0-14.5,2.08-31.08,20.06-31.08,8.36,0,15.61,4.51,15.54,13.47Zm-6.22,13c-4.81,0-6.95,5.48-6.95,9.55,0,4.22,1.77,10,6.95,10s7-5.63,7-10C330.36,58.77,328.66,53.74,323.4,53.74Z" style="fill: #942645"/>
        <path d="M344.64,79.57V69.73H354v9.84Z" style="fill: #942645"/>
        <path d="M369.5,65.51c-.14,3.55,2.67,7.77,6.37,7.77,4.14,0,6.81-3.78,6.81-8,0-7.18-7-8.44-12.58-8.22v-7.4c5.32-.29,12.43-.89,12.43-8,0-3.92-2.15-7-6.14-7-3.33,0-6.29,3.62-6.15,7H358.92c.45-10.14,8.07-14.43,17.39-14.43,7.18,0,17.32,4.22,17.32,13,0,7.18-4.22,11.54-9.84,12.73v.15c6.21,1.77,10,5.84,10,13.83s-9.48,13.77-18.06,13.77c-10.21,0-17.39-4-17.47-15.17Z" style="fill: #942645"/>
        <path d="M409.54,66.84a6.71,6.71,0,0,0,6.51,6.44c5.62,0,7.4-6.51,7.4-11,0-4.22-2.29-9.25-7.1-9.25-3.41,0-5.7,2.67-6.59,5.85L399,58.55l1.18-30.19h31.31v7.4H410l-.67,13.47a13.13,13.13,0,0,1,9.48-3.63c9.17,0,15.76,5.55,15.76,17.54,0,9.47-8.21,17.54-18.8,17.54-8.95,0-16.72-4-17.17-13.84Z" style="fill: #942645"/>
        <path d="M277.73,93.21H287v17.23h.13a10.5,10.5,0,0,1,8.31-4.52c9.67,0,14.57,8.12,14.57,16.49,0,8-4.28,16.49-13.4,16.49a10.34,10.34,0,0,1-9.54-5.33H287c0,1.49-.12,2.91-.25,4.4h-9.3c.13-2.05.31-4.15.31-6.2Zm16,39.49c5.95,0,6.7-5.52,6.7-10.29s-.75-10.29-6.7-10.29c-5,0-6.7,6-6.7,10.29S288.71,132.7,293.73,132.7Z" style="fill: #942645"/>
        <path d="M322.37,93.21v8h-9.92v-8Zm-.31,13.64V138h-9.3V106.85Z" style="fill: #942645"/>
        <path d="M335.58,93.21V138h-9.3V93.21Z" style="fill: #942645"/>
        <path d="M349.09,93.21V138h-9.3V93.21Z" style="fill: #942645"/>
        <path d="M362.92,93.21v8H353v-8Zm-.31,13.64V138h-9.3V106.85Z" style="fill: #942645"/>
        <path d="M383.07,138.9c-10.17,0-16.24-6.7-16.24-16.49s6.07-16.49,16.24-16.49,16.24,6.69,16.24,16.49S393.24,138.9,383.07,138.9Zm0-6.2c5.7,0,6.63-5.33,6.63-10.29s-.93-10.29-6.63-10.29-6.63,5.33-6.63,10.29S377.37,132.7,383.07,132.7Z" style="fill: #942645"/>
        <path d="M411.59,110.44l.12.19c1.93-2.85,4.84-4.71,9.55-4.71,3.1,0,9.12,2.29,10.23,6.82a21.06,21.06,0,0,1,.62,5V138h-9.3V119.25c-.06-3.35-1-7.13-5.58-7.13-2.91,0-5.45,2.6-5.58,7.13V138h-9.3V106.85h9.24Z" style="fill: #942645"/>
        <path d="M298.5,149.82v15.37c0,6.53-4.69,9.69-10.64,9.69s-10.64-3.16-10.64-9.69V149.82h5.27v13.33c0,4.15.2,7.92,5.37,7.92s5.37-3.77,5.37-7.92V149.82Z" style="fill: #324b5c"/>
        <path d="M315.16,156.83c-.2-2.49-1.53-3.71-4.08-3.71-1.94,0-3.91,1-3.91,3.16,0,2.65,2.38,3,4.49,3.47,3.74.95,9.25,2,9.25,6.94,0,6.08-5.31,8.19-10.58,8.19-5.61,0-9.58-2.18-9.41-8.36h5.37c-.21,2.72,1.36,4.55,4.11,4.55,2.11,0,4.9-.64,4.9-3.26,0-2.89-3.5-3.1-5.61-3.64-3.44-.85-8.13-2.41-8.13-6.76,0-5.62,5.17-8.1,10.2-8.1,4.76,0,8.47,2.59,8.47,7.52Z" style="fill: #324b5c"/>
        <path d="M342.43,149.82h5.1V171c0,1.12.1,2.28.17,3.4h-5.1c-.07-.82-.14-1.6-.14-2.41h-.06a5.7,5.7,0,0,1-5.24,2.92c-5,0-7.34-4.66-7.34-9,0-4.59,2.68-9.05,8-9.05a5.78,5.78,0,0,1,4.55,2.48h.07Zm-3.67,21.66c2.75,0,3.67-3.3,3.67-5.64s-.92-5.65-3.67-5.65c-3.27,0-3.67,3-3.67,5.65S335.49,171.48,338.76,171.48Z" style="fill: #324b5c"/>
        <path d="M357.59,174.88c-5.57,0-8.9-3.67-8.9-9s3.33-9.05,8.9-9.05,8.91,3.67,8.91,9.05S363.17,174.88,357.59,174.88Zm0-3.4c3.13,0,3.64-2.92,3.64-5.64s-.51-5.65-3.64-5.65-3.63,2.93-3.63,5.65S354.47,171.48,357.59,171.48Z" style="fill: #324b5c"/>
        <path d="M373.88,149.82v24.55h-5.1V149.82Z" style="fill: #324b5c"/>
        <path d="M381.29,149.82v24.55h-5.1V149.82Z" style="fill: #324b5c"/>
        <path d="M383.6,162.13a4.63,4.63,0,0,1,2.32-4.25,10,10,0,0,1,5-1.09c3.43,0,7.27,1.26,7.27,6.39v9.32a16,16,0,0,0,.24,1.87h-4.59a18.3,18.3,0,0,1-.17-2.28h-.07a5.56,5.56,0,0,1-5.23,2.79c-3.2,0-5.58-1.84-5.58-5.17a5.93,5.93,0,0,1,3.64-5.4,16,16,0,0,1,6.66-.92v-1.6a2.18,2.18,0,0,0-2.34-2.11,2.31,2.31,0,0,0-2.28,2.45Zm4.12,6.9a2.38,2.38,0,0,0,2.48,2.45c2.82,0,2.92-3.13,2.92-5.13C391.36,166.31,387.72,166.28,387.72,169Z" style="fill: #324b5c"/>
        <path d="M404.75,157.3l.1,3.1h.07c1.09-2.69,3.27-3.37,5.82-3.3v4.52h-2.21a3.68,3.68,0,0,0-2.49,1.26,6.18,6.18,0,0,0-.68,3v8.47H400.3l0-13.67c0-.71-.1-2.14-.17-3.4Z" style="fill: #324b5c"/>
        <path d="M421.65,161.86c-.07-1.16-1.16-1.67-2.31-1.67-1.4,0-2,.41-2,1.53,0,2.69,9.76,1.16,9.76,7.55,0,3.74-4.56,5.61-7.72,5.61-4,0-7.45-1.56-7.51-5.47h4.72c.1,1.32,1.29,2.07,2.79,2.07s2.45-.58,2.45-1.9-2.45-1.94-3.47-2.18c-3.27-.78-6.29-1.5-6.29-5.47,0-3.57,4.32-5.14,7.31-5.14,3.6,0,6.66,1.29,6.9,5.07Z" style="fill: #324b5c"/>
        <path d="M433.3,160h-4.87v-1a36.18,36.18,0,0,0,3.15-3.28,2.08,2.08,0,0,0,.54-1.4,1.09,1.09,0,0,0-1.23-1.19,1.16,1.16,0,0,0-1.19,1.31h-1.16a2.19,2.19,0,0,1,2.33-2.26c1.47,0,2.41.81,2.41,2a2.8,2.8,0,0,1-.81,2,26.26,26.26,0,0,1-2.67,2.78v0h3.5Z" style="fill: #324b5c"/>
      </g>
    </g>
</svg>