<svg xmlns="http://www.w3.org/2000/svg" viewBox="0 0 450 200">
  <title>Asset 5</title>
  <g id="Layer_2" data-name="Layer 2">
    <g id="Animation6">
      <g id="Animation6-2" data-name="Animation6">
        <rect id="backgroundDelete" width="450" height="200" style="fill: none"/>
        <g id="an6twirler">
          <circle cx="114.83" cy="99.45" r="99.44" style="fill: none"/>
          <path d="M114.83,170a70.56,70.56,0,1,1,70.56-70.56h0A70.63,70.63,0,0,1,114.83,170Zm0-134.84a64.29,64.29,0,1,0,64.28,64.3h0A64.35,64.35,0,0,0,114.83,35.16Z" style="fill: #f4f4f4"/>
          <g id="an6item1">
            <g>
              <rect x="80.34" y="8.25" width="64.8" height="48.6" rx="2.03" style="fill: #4e5052"/>
              <rect x="80.34" y="14.33" width="64.8" height="36.45" style="fill: #bde6ee"/>
              <polygon points="80.34 14.32 80.34 50.78 91.48 50.78 127.93 14.32 80.34 14.32" style="fill: #d3eef4"/>
              <path d="M112.74,17.36a15.19,15.19,0,1,0,15.19,15.19,15.19,15.19,0,0,0-15.19-15.19Z" style="fill: #f29111"/>
              <path d="M112.74,17.36a15.19,15.19,0,0,0-12.15,24.31L121.85,20.4A15,15,0,0,0,112.74,17.36Z" style="fill: #f9b258"/>
              <polygon points="120.34 32.55 108.19 40.15 108.19 24.96 120.34 32.55" style="fill: #fff"/>
            </g>
          </g>
          <g id="an6item2">
            <circle cx="59.02" cy="134.3" r="41.5" style="fill: none"/>
            <g>
              <circle cx="32.52" cy="126.87" r="7.43" style="fill: #f29111"/>
              <path d="M30,130.44v-.83a.27.27,0,0,1,.27-.27h.34v-2h-.34a.27.27,0,0,1-.27-.27v-.82a.27.27,0,0,1,.27-.27h.34v-.33A2.45,2.45,0,0,1,32.87,123h.25a4,4,0,0,1,1.7.41.28.28,0,0,1,.13.37l-.37.72a.27.27,0,0,1-.36.12h0a1.83,1.83,0,0,0-.91-.25c-.66,0-1.07.49-1.07,1.36V126h1.19a.27.27,0,0,1,.27.27v.82a.27.27,0,0,1-.27.27H32.23v2h2.5a.27.27,0,0,1,.27.27h0v.83a.27.27,0,0,1-.27.27H30.31a.27.27,0,0,1-.31-.23Z" style="fill: #fff"/>
            </g>
            <g>
              <circle cx="83.82" cy="151.35" r="9.15" style="fill: #f29111"/>
              <path d="M79.29,149.62h.86a4.79,4.79,0,0,1,4.52-3.06,5.52,5.52,0,0,1,2.66.72.34.34,0,0,1,.14.45h0l-.5.84a.34.34,0,0,1-.47.11h0a3.14,3.14,0,0,0-1.75-.54,2.73,2.73,0,0,0-2.53,1.47h3a.35.35,0,0,1,.33.34v.66a.33.33,0,0,1-.33.33H81.8a2.94,2.94,0,0,0,0,.42,1.85,1.85,0,0,0,0,.47h3.38a.33.33,0,0,1,.33.33h0v.63a.35.35,0,0,1-.33.34h-3a2.77,2.77,0,0,0,2.57,1.45,3.1,3.1,0,0,0,1.81-.58.34.34,0,0,1,.46.07l.6.77a.32.32,0,0,1-.06.46l0,0a5.38,5.38,0,0,1-2.91.86,4.66,4.66,0,0,1-4.49-3.05H79.3a.35.35,0,0,1-.33-.34v-.63a.33.33,0,0,1,.33-.33h.59V151H79.3a.33.33,0,0,1-.33-.33h0V150a.34.34,0,0,1,.3-.38Z" style="fill: #fff"/>
            </g>
            <g>
              <circle cx="54.81" cy="146.87" r="19.43" transform="translate(-94.87 193.47) rotate(-86.83)" style="fill: #f29111"/>
              <path d="M62.24,150.77c0-3.51-2.68-4.88-5.18-5.83-2.32-.86-4.55-1.37-4.55-2.77a2.27,2.27,0,0,1,2.42-2.09H55a6.32,6.32,0,0,1,3.75,1.35.7.7,0,0,0,1-.11l0,0,1.43-1.75a.71.71,0,0,0-.13-1l0,0a11,11,0,0,0-4.36-1.74v-2.66a.61.61,0,0,0-.61-.61H53.59a.6.6,0,0,0-.6.6h0v2.73a5.35,5.35,0,0,0-4.56,5.5c0,3.3,2.47,4.55,4.88,5.42s4.61,1.42,4.61,3.27c0,1.67-1.25,2.56-3.48,2.56a6.42,6.42,0,0,1-4.22-2,.72.72,0,0,0-1,0l-1.66,1.61a.7.7,0,0,0,0,1h0A10.2,10.2,0,0,0,53,157v2.67a.6.6,0,0,0,.6.6H56a.6.6,0,0,0,.61-.59h0v-2.76C59.67,156.28,62.24,154.3,62.24,150.77Z" style="fill: #fff"/>
            </g>
            <g>
              <circle cx="50.24" cy="113.72" r="11.43" style="fill: #f29111"/>
              <path d="M46.57,113.4h1.8l-2.73-4.88a.43.43,0,0,1,.17-.57.46.46,0,0,1,.2,0h1.84a.41.41,0,0,1,.36.21l2.09,3.8h0l1.94-3.79a.45.45,0,0,1,.38-.22h1.81a.42.42,0,0,1,.42.4.43.43,0,0,1-.06.22L52,113.4H53.8a.41.41,0,0,1,.42.4h0v.81a.42.42,0,0,1-.42.42H51.42v1h2.42a.42.42,0,0,1,.42.42v.79a.42.42,0,0,1-.42.42H51.42v1.47a.42.42,0,0,1-.42.42H49.4a.41.41,0,0,1-.41-.41h0v-1.47H46.57a.42.42,0,0,1-.42-.42v-.79a.42.42,0,0,1,.42-.42H49v-1H46.57a.42.42,0,0,1-.42-.42v-.81a.41.41,0,0,1,.41-.41Z" style="fill: #fff"/>
            </g>
          </g>
          <g id="an6item3">
            <circle cx="173.5" cy="118.5" r="41.5" style="fill: none"/>
            <g>
              <path d="M202.65,138.62v-.46a1.84,1.84,0,0,0-1.35-1.78l-11.65-3.33c-7.73-4.69-13.51-7.43-22.28-7.43A123.53,123.53,0,0,0,146,127.48l.93,1.86V134l-2.69,1.34a1.86,1.86,0,0,0-1,1.66v5.9a.93.93,0,0,0,.27.65l2.24,2.24a.9.9,0,0,0,.66.27h53.07a.89.89,0,0,0,.65-.27l2.25-2.24a1,1,0,0,0,.27-.66Z" style="fill: #4f6c7d"/>
              <path d="M201.72,141.4h.93v-2.78h-.93a.93.93,0,0,0-.93.93v.92a.93.93,0,0,0,.93.93Z" style="fill: #f29111"/>
              <g>
                <path d="M156.37,133.88h10.18a.62.62,0,0,0,.62-.62.52.52,0,0,0,0-.17L165.68,128a.63.63,0,0,0-.61-.45h-.53c-1.58.07-3.89.21-6.17.35a.63.63,0,0,0-.53.38l-2,4.77a.61.61,0,0,0,.35.79A.58.58,0,0,0,156.37,133.88Z" style="fill: #bde6ee"/>
                <path d="M155.39,128.09c-.92.09-2.84.3-4.09.46a.31.31,0,0,0-.27.35.35.35,0,0,0,.05.13l2.39,3.51a.32.32,0,0,0,.43.08.36.36,0,0,0,.11-.14l1.7-4a.31.31,0,0,0-.22-.38Z" style="fill: #d3eef4"/>
              </g>
              <path d="M158.37,127.87a.63.63,0,0,0-.53.38l-2,4.77a.61.61,0,0,0,.31.81.75.75,0,0,0,.26,0h.89l6.32-6.32Z" style="fill: #d3eef4"/>
              <path d="M168.54,128.32l1.49,5.21a.64.64,0,0,0,.59.45H183.7a.62.62,0,0,0,.55-.35l.35-.68a.63.63,0,0,0-.26-.83,43.42,43.42,0,0,0-7.08-3.13,34.2,34.2,0,0,0-8.09-1.46.62.62,0,0,0-.65.59A.47.47,0,0,0,168.54,128.32Z" style="fill: #bde6ee"/>
              <path d="M160.26,146a6.51,6.51,0,1,0-12.69,0Z" style="fill: #324b5c"/>
              <path d="M191,138.15a6.5,6.5,0,0,0-6.47,5.94l-18.65-.81a.93.93,0,0,0-.69.27l-2.5,2.49h34.66a6.5,6.5,0,0,0-6.35-7.89Z" style="fill: #324b5c"/>
              <g>
                <path d="M196.15,144.65a5.11,5.11,0,1,1-5.12-5.1h0A5.11,5.11,0,0,1,196.15,144.65Z"/>
                <path d="M193.83,144.65a2.79,2.79,0,1,1-2.8-2.78h0A2.79,2.79,0,0,1,193.83,144.65Z" style="fill: #939699"/>
              </g>
              <g>
                <path d="M159,144.65a5.11,5.11,0,1,1-5.12-5.1h0A5.11,5.11,0,0,1,159,144.65Z"/>
                <path d="M156.7,144.65a2.79,2.79,0,1,1-2.8-2.78h0A2.79,2.79,0,0,1,156.7,144.65Z" style="fill: #939699"/>
              </g>
              <path d="M144.26,135.32,147,134v-4.64l-2.78,3.71v2.32Z" style="fill: #bde6ee"/>
            </g>
            <g>
              <polygon points="189.2 95.46 177.02 107.64 177.02 119.64 201.39 119.64 201.39 107.64 189.2 95.46" style="fill: #6d8c9e;fill-rule: evenodd"/>
              <g>
                <rect x="185.4" y="108.98" width="7.62" height="10.66" style="fill: #324b5c"/>
                <polygon points="200.63 100.42 200.63 90.7 196.06 90.7 196.06 95.85 189.2 88.99 171.59 106.6 174.83 109.83 189.2 95.46 203.58 109.83 206.81 106.6 200.63 100.42" style="fill: #324b5c"/>
              </g>
            </g>
            <g>
              <g>
                <g>
                  <rect x="149.34" y="89.45" width="16.48" height="30.14" rx="1.26" style="fill: #4e5052"/>
                  <rect x="150.75" y="91.81" width="13.66" height="24.02" style="fill: #bde6ee"/>
                  <path d="M160.17,117.71a.71.71,0,0,1-.71.71H155.7a.71.71,0,0,1-.71-.71h0a.71.71,0,0,1,.71-.71h3.76a.71.71,0,0,1,.71.71Z" style="fill: #939699"/>
                  <polygon points="164.41 91.81 150.75 91.81 150.75 109.7 164.41 96.05 164.41 91.81" style="fill: #d3eef4"/>
                  <path d="M160.17,90.63a.24.24,0,0,1-.24.24h-4.7a.24.24,0,0,1-.24-.24h0a.24.24,0,0,1,.24-.24h4.7a.24.24,0,0,1,.24.24Z" style="fill: #939699"/>
                </g>
                <g>
                  <rect x="151.69" y="92.75" width="3.3" height="3.3" rx="0.47" style="fill: #6d8c9e"/>
                  <rect x="155.93" y="92.75" width="3.3" height="3.3" rx="0.47" style="fill: #6d8c9e"/>
                  <rect x="160.17" y="92.75" width="3.3" height="3.3" rx="0.47" style="fill: #6d8c9e"/>
                  <rect x="151.69" y="96.99" width="3.3" height="3.3" rx="0.47" style="fill: #6d8c9e"/>
                  <rect x="155.93" y="96.99" width="3.3" height="3.3" rx="0.47" style="fill: #6d8c9e"/>
                  <rect x="160.17" y="96.99" width="3.3" height="3.3" rx="0.47" style="fill: #6d8c9e"/>
                  <rect x="151.69" y="101.23" width="3.3" height="3.3" rx="0.47" style="fill: #6d8c9e"/>
                  <rect x="155.93" y="101.23" width="3.3" height="3.3" rx="0.47" style="fill: #6d8c9e"/>
                  <rect x="160.17" y="101.23" width="3.3" height="3.3" rx="0.47" style="fill: #6d8c9e"/>
                  <rect x="151.69" y="105.47" width="3.3" height="3.3" rx="0.47" style="fill: #6d8c9e"/>
                  <rect x="155.93" y="105.47" width="3.3" height="3.3" rx="0.47" style="fill: #6d8c9e"/>
                </g>
              </g>
              <g>
                <rect x="151.69" y="101.23" width="3.3" height="3.3" rx="0.47" style="fill: #8aadbf"/>
                <rect x="151.69" y="92.75" width="3.3" height="3.3" rx="0.47" style="fill: #8aadbf"/>
                <rect x="151.69" y="96.99" width="3.3" height="3.3" rx="0.47" style="fill: #8aadbf"/>
                <path d="M154.52,105.47h-2.36a.48.48,0,0,0-.47.47v2.35a.47.47,0,0,0,.14.33l3-3A.46.46,0,0,0,154.52,105.47Z" style="fill: #8aadbf"/>
                <rect x="155.93" y="96.99" width="3.3" height="3.3" rx="0.47" style="fill: #8aadbf"/>
                <path d="M160.64,97a.47.47,0,0,0-.47.47h0v2.35a.48.48,0,0,0,.14.34l3-3A.47.47,0,0,0,163,97Z" style="fill: #8aadbf"/>
                <path d="M156.4,101.23a.47.47,0,0,0-.47.47h0v2.35a.48.48,0,0,0,.14.34l3-3a.47.47,0,0,0-.33-.14Z" style="fill: #8aadbf"/>
                <rect x="160.17" y="92.75" width="3.3" height="3.3" rx="0.47" style="fill: #8aadbf"/>
                <rect x="155.93" y="92.75" width="3.3" height="3.3" rx="0.47" style="fill: #8aadbf"/>
              </g>
            </g>
          </g>
        </g>
        <g id="an6bulb">
          <g>
            <g>
              <rect x="327.11" y="28.5" width="80.98" height="149.5" rx="6.23" style="fill: #4e5052"/>
              <rect x="333.34" y="40.96" width="68.52" height="118.35" style="fill: #bde6ee"/>
              <path d="M380.06,168.66a3.12,3.12,0,0,1-3.11,3.11H358.26a3.12,3.12,0,0,1-3.11-3.11h0a3.12,3.12,0,0,1,3.11-3.12H377a3.12,3.12,0,0,1,3.11,3.12Z" style="fill: #939699"/>
              <path d="M380.06,34.73a1.7,1.7,0,0,1-1.8,1.56H356.94a1.57,1.57,0,1,1-.35-3.12,2,2,0,0,1,.35,0h21.32A1.7,1.7,0,0,1,380.06,34.73Z" style="fill: #939699"/>
            </g>
            <polygon points="401.87 40.96 333.34 40.96 333.34 125.05 401.87 56.53 401.87 40.96" style="fill: #d3eef4"/>
          </g>
          <g>
            <g>
              <g>
                <g id="an6bulbright">
                  <path d="M366.72,80.57v36.89h7.69v-3.6c0-7,7.69-10.18,7.69-17.92A15.38,15.38,0,0,0,366.72,80.57Z" style="fill: #f29111"/>
                </g>
                <g id="an6bulbleft">
                  <path d="M366.72,80.57v36.89H359v-3.6c0-7-7.69-10.18-7.69-17.92a15.37,15.37,0,0,1,15.37-15.37Z" style="fill: #f9b258"/>
                </g>
              </g>
              <g>
                <path d="M359,120.54V126a4.27,4.27,0,0,0,3.84,4.25h0a2.56,2.56,0,0,0,2.56,2.56h1.28v-12.3Z" style="fill: #b9bbbd"/>
                <path d="M366.72,120.54v12.3H368a2.57,2.57,0,0,0,2.57-2.56h0a4.28,4.28,0,0,0,3.84-4.25v-5.47Z" style="fill: #a6a9ab"/>
              </g>
            </g>
            <g id="an6shine">
              <path  d="M366.72,76.62a2.05,2.05,0,0,1-2.05-2.05V69.3a2,2,0,1,1,4.1,0v5.27a2.05,2.05,0,0,1-2,2.05Z" style="fill: #fff"/>
              <path d="M354,80a2.07,2.07,0,0,1-1.78-1l-2.64-4.57a2,2,0,0,1,3.56-2L355.76,77a2,2,0,0,1-.66,2.75l-.09,0A2.06,2.06,0,0,1,354,80Z" style="fill: #fff"/>
              <path d="M388.82,89.36a2.05,2.05,0,0,1-1-3.83l4.56-2.64a2,2,0,1,1,2.05,3.55l-4.56,2.64A2,2,0,0,1,388.82,89.36Z" style="fill: #fff"/>
              <path d="M344.66,89.36a2,2,0,0,1-1-.28l-4.57-2.64a2,2,0,0,1,2.05-3.55h0l4.57,2.64a2.05,2.05,0,0,1-1,3.83Z" style="fill: #fff"/>
              <path d="M379.46,80a2.2,2.2,0,0,1-1-.27,2.06,2.06,0,0,1-.75-2.8l2.64-4.57a2,2,0,0,1,3.55,2h0L381.23,79A2,2,0,0,1,379.46,80Z" style="fill: #fff"/>
            </g>
          </g>
        </g>
        <path id="an6chevron1" d="M272.12,133a.4.4,0,0,1-.29-.12l-3-3a.4.4,0,0,1-.12-.29.42.42,0,0,1,.12-.3l16.67-16.66,5.2-5.62-5.15-5.57L268.82,84.71a.38.38,0,0,1-.12-.29.4.4,0,0,1,.12-.29l3-3a.4.4,0,0,1,.29-.12.42.42,0,0,1,.3.12L298.29,107l-25.87,25.88A.42.42,0,0,1,272.12,133Z" style="fill: #f4f4f4"/>
        <path id="an6chevron2" d="M253.58,133a.38.38,0,0,1-.29-.12l-3-3a.4.4,0,0,1-.12-.29.42.42,0,0,1,.12-.3L267,112.63l5.2-5.62L267,101.43,250.27,84.71a.38.38,0,0,1-.12-.29.4.4,0,0,1,.12-.29l3-3a.42.42,0,0,1,.3-.12.4.4,0,0,1,.29.12L279.75,107l-25.88,25.88A.4.4,0,0,1,253.58,133Z" style="fill: #f4f4f4"/>
        <path id="an6chevron3" d="M235.61,133a.38.38,0,0,1-.29-.12l-3-3a.4.4,0,0,1-.12-.29.42.42,0,0,1,.12-.3L249,112.62l5.2-5.62-5.2-5.57L232.3,84.71a.38.38,0,0,1-.12-.29.4.4,0,0,1,.12-.29l3-3a.42.42,0,0,1,.3-.12.4.4,0,0,1,.29.12L261.78,107,235.9,132.88A.4.4,0,0,1,235.61,133Z" style="fill: #f4f4f4"/>
        <g id="an6chevron5g">
          <path d="M103.65,104.21a2.18,2.18,0,0,0,2.12,2.09c1.83,0,2.41-2.11,2.41-3.58s-.75-3-2.32-3a2.32,2.32,0,0,0-2.14,1.9l-3.49-.1.39-9.82H110.8v2.4h-7l-.21,4.38a4.26,4.26,0,0,1,3.08-1.18c3,0,5.13,1.81,5.13,5.71a5.93,5.93,0,0,1-6.12,5.7c-2.91,0-5.44-1.3-5.58-4.5Z" style="fill: #6d8c9e"/>
          <path d="M121.61,102V99.08h7.13v8.69a18,18,0,0,1-3.9.77,35.58,35.58,0,0,1-4,.17c-3.44,0-8.16-2.14-8.16-9s4.72-9,8.16-9c5,0,8.14,1.51,8.16,5.66h-4c0-2.22-1.45-3-3.49-3-3.3,0-4.89,2.44-4.89,6.36s1.59,6.36,4.89,6.36a16.83,16.83,0,0,0,3.46-.39V102Z" style="fill: #6d8c9e"/>
        </g>
      </g>
    </g>
  </g>
</svg>