<svg xmlns="http://www.w3.org/2000/svg" viewBox="0 0 450 200">
    <g id="Animation7">
      <rect width="450" height="200" style="fill: #fff"/>
      <g>
        <path d="M387.46,44.26c-.89,0-1.77.05-2.63.13a29.43,29.43,0,0,0-37.76-19,33.26,33.26,0,0,0-59.79,11.18l-.9,0a33.27,33.27,0,0,0,0,66.53H387.46a29.43,29.43,0,0,0,0-58.86Z" style="fill: #d3eef4"/>
        <path d="M387.46,44.26c-.89,0-1.77.05-2.63.13a29.42,29.42,0,0,0-45.57-14.83A28.13,28.13,0,0,0,294.5,47a29.67,29.67,0,0,0-3-.16,28.15,28.15,0,1,0,0,56.3h96a29.43,29.43,0,0,0,0-58.86Z" style="fill: #bde6ee"/>
      </g>
      <g>
        <path d="M53.85,170h104.3a78.86,78.86,0,1,0-104.3,0Z" style="fill: #324b5c"/>
        <path d="M57.51,159.89,106,139.8l48.49,20.09a69,69,0,1,0-97,0Z" style="fill: #bde6ee"/>
       
        <path d="M37,110.86a68.61,68.61,0,0,0,15.57,43.57l39.28-39.28a14.79,14.79,0,0,1,18.44-18.44l39.3-39.3A69,69,0,0,0,37,110.86Z" style="fill: #d3eef4"/>
        <g>
          <g>
            <path d="M106,61.57a2.46,2.46,0,0,1-2.46-2.46V49.25a2.46,2.46,0,1,1,4.92,0v9.86A2.46,2.46,0,0,1,106,61.57Z" style="fill: #4f6c7d"/>
            <g>
              <path d="M167.61,113.32h-11.5a2.47,2.47,0,1,1,0-4.93h11.5a2.47,2.47,0,0,1,0,4.93Z" style="fill: #324b5c"/>
              <path d="M55.07,113.32H44.39a2.47,2.47,0,0,1,0-4.93H55.07a2.47,2.47,0,1,1,0,4.93Z" style="fill: #4f6c7d"/>
            </g>
          </g>
          <g>
            <path d="M142.59,76.73a2.47,2.47,0,0,1-1.74-4.21l7-7A2.47,2.47,0,0,1,151.31,69l-7,7A2.49,2.49,0,0,1,142.59,76.73Z" style="fill: #324b5c"/>
            <path d="M70,77.31a2.45,2.45,0,0,1-1.74-.72L60.69,69a2.47,2.47,0,0,1,3.49-3.49l7.55,7.55A2.47,2.47,0,0,1,70,77.31Z" style="fill: #4f6c7d"/>
          </g>
          <g>
            <path d="M86.2,65.51A2.46,2.46,0,0,1,83.92,64l-3.77-9.11A2.46,2.46,0,1,1,84.7,53l3.77,9.1a2.46,2.46,0,0,1-1.33,3.22A2.43,2.43,0,0,1,86.2,65.51Z" style="fill: #4f6c7d"/>
            <g>
              <path d="M152.29,94.15a2.46,2.46,0,0,1-.94-4.74L162,85a2.47,2.47,0,0,1,1.89,4.56L153.24,94A2.44,2.44,0,0,1,152.29,94.15Z" style="fill: #324b5c"/>
              <path d="M49.08,136.9a2.46,2.46,0,0,1-.94-4.74L58,128.07a2.46,2.46,0,1,1,1.89,4.55L50,136.71A2.44,2.44,0,0,1,49.08,136.9Z" style="fill: #4f6c7d"/>
            </g>
          </g>
          <g>
            <path d="M125.8,65.51a2.43,2.43,0,0,1-.94-.19,2.46,2.46,0,0,1-1.33-3.22L127.3,53a2.46,2.46,0,1,1,4.55,1.88L128.08,64A2.46,2.46,0,0,1,125.8,65.51Z" style="fill: #4f6c7d"/>
            <g>
              <path d="M162.92,136.9a2.44,2.44,0,0,1-.95-.19l-10.62-4.4a2.46,2.46,0,1,1,1.89-4.55l10.62,4.4a2.46,2.46,0,0,1-.94,4.74Z" style="fill: #324b5c"/>
              <path d="M59,93.83a2.44,2.44,0,0,1-1-.19l-9.86-4.08A2.47,2.47,0,0,1,50,85l9.86,4.09A2.46,2.46,0,0,1,59,93.83Z" style="fill: #4f6c7d"/>
            </g>
          </g>
					 <g id="an7dial">
          <path d="M68.93,124.27l1.94,4.54,25.92-6.34a14.79,14.79,0,1,0-5.39-12.59Z" style="fill: #f29111"/>
          <path d="M143.21,97.59l-1.94-4.53L115.35,99.4A14.79,14.79,0,1,0,120.74,112Z" style="fill: none"/>
        </g>
        </g>
      </g>
      <g id="an8server">
        <g>
          <g>
            <g>
              <polygon points="300.57 40.42 285.09 46.3 285.09 90.61 300.57 92.56 300.57 40.42" style="fill: #dee0e0"/>
              <path d="M300.57,40.42,285.09,46.3V90.61l15.48,2,10.59-2V46.29Zm0,50-13.85-1.45V47.56l13.85-5Z" style="fill: #b9bbbd"/>
              <g>
                <polygon points="287.79 84.03 298.74 84.57 298.74 83.02 287.79 82.65 287.79 84.03" style="fill: #939699"/>
                <polygon points="287.79 60.5 298.74 58.19 298.74 56.63 287.79 59.12 287.79 60.5" style="fill: #939699"/>
                <polygon points="287.79 77.11 298.74 76.81 298.74 75.26 287.79 75.73 287.79 77.11" style="fill: #939699"/>
              </g>
              <g>
                <polygon id="nothing" points="294.14 53.26 291.08 53.97 291.08 49.67 294.14 48.69 294.14 53.26" style="fill: #b9bbbd"/>
                <polygon class="an8light2" points="294.14 53.26 291.08 53.97 291.08 49.67 294.14 48.69 294.14 53.26" style="fill: #f80000"/>
                <g>
                  <polygon points="289.88 51.56 287.79 52.19 287.79 53.58 289.88 52.97 289.88 51.56" style="fill: #939699"/>
                  <polygon points="295.33 49.91 295.33 51.41 298.74 50.43 298.74 48.88 295.33 49.91" style="fill: #939699"/>
                </g>
              </g>
            </g>
            <polygon points="287.79 70.19 298.74 69.05 298.74 64.39 287.79 66.04 287.79 70.19" style="fill: #fff"/>
          </g>
          <g>
            <g>
              <polygon points="359.53 30.81 339.98 38.24 339.98 94.22 359.53 96.67 359.53 30.81" style="fill: #dee0e0"/>
              <path d="M359.53,30.81,340,38.24v56l19.55,2.45,13.38-2.47v-56Zm0,63.12L342,92.1V39.83l17.5-6.27Z" style="fill: #b9bbbd"/>
              <g>
                <polygon points="343.38 45.69 343.38 47.44 357.21 43.46 357.21 41.5 343.38 45.69" style="fill: #939699"/>
                <polygon points="343.38 85.9 357.21 86.58 357.21 84.62 343.38 84.16 343.38 85.9" style="fill: #939699"/>
                <polygon points="343.38 56.18 357.21 53.26 357.21 51.3 343.38 54.43 343.38 56.18" style="fill: #939699"/>
                <polygon points="343.38 77.16 357.21 76.78 357.21 74.82 343.38 75.41 343.38 77.16" style="fill: #939699"/>
              </g>
            </g>
            <polygon points="343.38 68.42 357.21 66.98 357.21 61.1 343.38 63.17 343.38 68.42" style="fill: #fff"/>
          </g>
          <g>
            <polygon points="333.12 17.09 307.05 26.99 307.05 101.63 333.12 104.91 333.12 17.09" style="fill: #dee0e0"/>
            <polygon points="330.02 73.32 311.58 74.54 311.58 66.29 330.02 64.11 330.02 73.32" style="fill: #fff"/>
            <polygon points="330.02 29.42 311.58 35.21 311.58 33.49 330.02 27.5 330.02 29.42" style="fill: #939699"/>
            <polygon points="330.02 44.05 311.58 48.32 311.58 46.6 330.02 42.13 330.02 44.05" style="fill: #939699"/>
            <polygon points="330.02 80.64 311.58 81.1 311.58 79.38 330.02 78.72 330.02 80.64" style="fill: #939699"/>
            <polygon points="330.02 87.95 311.58 87.65 311.58 85.93 330.02 86.03 330.02 87.95" style="fill: #939699"/>
            <polygon points="330.02 95.27 311.58 94.2 311.58 92.48 330.02 93.35 330.02 95.27" style="fill: #939699"/>
            <polygon points="316.02 38.79 311.58 40.05 311.58 41.77 316.02 40.56 316.02 38.79" style="fill: #939699"/>
            <polygon points="324.8 36.29 324.8 38.16 330.02 36.73 330.02 34.81 324.8 36.29" style="fill: #939699"/>
            <polygon id="nothing-2" data-name="nothing" points="322.88 41.45 317.79 42.76 317.79 35.61 322.88 34.08 322.88 41.45" style="fill: #b9bbbd"/>
            <polygon class="an8light1" points="322.88 41.45 317.79 42.76 317.79 35.61 322.88 34.08 322.88 41.45" style="fill: #f80000"/>
            <polygon points="330.02 58.68 311.58 61.43 311.58 53.15 330.02 49.43 330.02 58.68" style="fill: #fff"/>
            <path d="M333.12,17.09,307.05,27v74.64l26.07,3.28,17.83-3.3V27Zm0,84.16-23.33-2.44V29.12l23.33-8.37Z" style="fill: #b9bbbd"/>
          </g>
        </g>
      </g>
      <polyline id="back" points="307.05 113.32 307.05 158 271.94 158" style="fill: none;stroke: #FFD39E;stroke-miterlimit: 10;stroke-width: 7px; stroke-linecap: round"/>
      <line id="back-2" data-name="back" x1="330.02" y1="113.32" x2="330.02" y2="185.42" style="fill: none;stroke: #FFD39E;stroke-miterlimit: 10;stroke-width: 7px; stroke-linecap: round"/>
      <polyline id="back-3" data-name="back" points="353.8 113.32 353.8 158 388.91 158" style="fill: none;stroke: #FFD39E;stroke-miterlimit: 10;stroke-width: 7px; stroke-linecap: round"/>
      <polyline id="an8lineright" points="353.8 113.32 353.8 158 388.91 158" style="fill: none;stroke: #f0902b;stroke-miterlimit: 10;stroke-width: 12px; stroke-linecap: round"/>
      <line id="an8linecenter" x1="330.02" y1="113.32" x2="330.02" y2="185.42" style="fill: none;stroke: #f0902b;stroke-miterlimit: 10;stroke-width: 12px;stroke-linecap: round"/>
      <polyline id="an8lineleft" points="307.05 113.32 307.05 158 268.37 158" style="fill: none;stroke: #f0902b;stroke-miterlimit: 10;stroke-width: 12px; stroke-linecap: round"/>
    </g>
</svg>